STARTFONT 2.1
COMMENT Copyright (C) 1990-1991 EWT Consulting
COMMENT Portions Copyright (C) 1994-1995 Cronyx Ltd.
COMMENT Changes Copyright (C) 1996 by Andrey A. Chernov, Moscow, Russia.
COMMENT Modified by Serge Vakulenko, <vak@cronyx.ru>
COMMENT This software may be used, modified, copied, distributed, and sold,
COMMENT in both source and binary form provided that the copyright
COMMENT and these terms are retained. Under no circumstances is the author
COMMENT responsible for the proper functioning of this software, nor does
COMMENT the author assume any responsibility for damages incurred with its use.
COMMENT $XFree86: xc/fonts/bdf/cyrillic/crox6tbo.bdf,v 3.2 1996/09/01 12:18:55 dawes Exp $
FONT -Cronyx-Times-Bold-I-Normal--34-240-100-100-P-124-KOI8-R
SIZE 24 96 96
FONTBOUNDINGBOX 45 35 -1 -8
STARTPROPERTIES 19
DEFAULT_CHAR 32
FONT_ASCENT 27
FONT_DESCENT 8
SPACING "P"
FONTNAME_REGISTRY ""
FOUNDRY "Cronyx"
FAMILY_NAME "Times"
WEIGHT_NAME "Bold"
SLANT "I"
SETWIDTH_NAME "Normal"
ADD_STYLE_NAME ""
AVERAGE_WIDTH 124
CHARSET_REGISTRY "KOI8"
CHARSET_ENCODING "R"
PIXEL_SIZE 34
POINT_SIZE 240
RESOLUTION_X 100
RESOLUTION_Y 100
COPYRIGHT "Copyright (C) 1990, 1991 EWT Consulting, Portions Copyright (C) 1994 Cronyx Ltd., Portions Copyright (C) 1996 by Andrey A. Chernov, Moscow, Russia."
ENDPROPERTIES
CHARS 224
STARTCHAR space
ENCODING 32
SWIDTH 257 0
DWIDTH 9 0
BBX 20 35 -1 -8
BITMAP
000000
000000
000000
000000
000000
000000
000000
000000
000000
000000
000000
000000
000000
000000
000000
000000
000000
000000
000000
000000
000000
000000
000000
000000
000000
000000
000000
000000
000000
000000
000000
000000
000000
000000
000000
ENDCHAR
STARTCHAR exclam
ENCODING 33
SWIDTH 285 0
DWIDTH 10 0
BBX 21 35 -1 -8
BITMAP
000000
000000
000000
000000
000180
000780
000780
000780
000F00
000F00
000F00
001E00
001E00
001E00
001800
001800
001800
003000
003000
000000
000000
000000
000000
00C000
01E000
01E000
018000
000000
000000
000000
000000
000000
000000
000000
000000
ENDCHAR
STARTCHAR quotedbl
ENCODING 34
SWIDTH 371 0
DWIDTH 13 0
BBX 24 35 -1 -8
BITMAP
000000
000000
000000
000000
000318
000F78
000F78
000F78
000C60
000C60
000C60
000000
000000
000000
000000
000000
000000
000000
000000
000000
000000
000000
000000
000000
000000
000000
000000
000000
000000
000000
000000
000000
000000
000000
000000
ENDCHAR
STARTCHAR numbersign
ENCODING 35
SWIDTH 485 0
DWIDTH 17 0
BBX 28 35 -1 -8
BITMAP
00000000
00000000
00000000
00000000
00000000
0001C700
0001C700
0001C700
00038E00
00038E00
00038E00
007FFF80
007FFF80
000E3800
001C7000
001C7000
001C7000
0038E000
0038E000
03FFFC00
07FFF800
00E38000
00E38000
01C70000
01C70000
01C70000
038E0000
00000000
00000000
00000000
00000000
00000000
00000000
00000000
00000000
ENDCHAR
STARTCHAR dollar
ENCODING 36
SWIDTH 485 0
DWIDTH 17 0
BBX 28 35 -1 -8
BITMAP
00000000
00000000
00003800
00003800
00003800
0001FD80
0007FF80
000F7380
001EE300
003EE300
003EE000
007DC000
003FC000
003FC000
003FC000
001FE000
0007F800
0007F800
0007F800
0007FC00
000EF800
030EF800
030EF800
071DE000
079DE000
07DFC000
0DFE0000
00380000
00380000
00700000
00000000
00000000
00000000
00000000
00000000
ENDCHAR
STARTCHAR percent
ENCODING 37
SWIDTH 828 0
DWIDTH 29 0
BBX 40 35 -1 -8
BITMAP
0000000000
0000000000
0000000000
0000000000
00007E03C0
0003DF1F00
000787FF00
000F07FE00
001E063800
003C063800
003C0E7000
007819C000
007839C000
003C738000
007FCE0000
001F0E1F00
00001C7BC0
000071E180
000073C1C0
0000E3C0C0
00038F0180
00038F0380
00070F0300
001C1E0E00
001C0F1C00
00380FF800
00E007C000
0000000000
0000000000
0000000000
0000000000
0000000000
0000000000
0000000000
0000000000
ENDCHAR
STARTCHAR ampersand
ENCODING 38
SWIDTH 742 0
DWIDTH 26 0
BBX 37 35 -1 -8
BITMAP
0000000000
0000000000
0000000000
0000000000
00000F0000
00007F8000
0000738000
0000E1C000
0001C38000
0001C38000
0001E70000
0001FC0000
0001F80000
0001F80000
0007F1FE00
000F787800
001E787000
003878E000
00783DC000
00783DC000
00F03F0000
00F03F0000
00F81E0000
00F03E3000
00FC7F7000
007FEFE000
003F0F8000
0000000000
0000000000
0000000000
0000000000
0000000000
0000000000
0000000000
0000000000
ENDCHAR
STARTCHAR quoteright
ENCODING 39
SWIDTH 285 0
DWIDTH 10 0
BBX 21 35 -1 -8
BITMAP
000000
000000
000000
000000
000180
000780
000780
000780
000600
000600
000600
000000
000000
000000
000000
000000
000000
000000
000000
000000
000000
000000
000000
000000
000000
000000
000000
000000
000000
000000
000000
000000
000000
000000
000000
ENDCHAR
STARTCHAR parenleft
ENCODING 40
SWIDTH 342 0
DWIDTH 12 0
BBX 23 35 -1 -8
BITMAP
000000
000000
000000
000000
000000
000038
000070
0000E0
0001C0
000380
000380
000E00
000E00
001E00
003800
003800
007800
00F000
00F000
00F000
01E000
01E000
01E000
01C000
01C000
01E000
01C000
01C000
00E000
01C000
00E000
00E000
00E000
007000
000000
ENDCHAR
STARTCHAR parenright
ENCODING 41
SWIDTH 342 0
DWIDTH 12 0
BBX 23 35 -1 -8
BITMAP
000000
000000
000000
000000
000000
001C00
000E00
000700
000E00
000700
000700
000700
000700
000780
000700
000700
000780
000F00
000F00
000F00
001E00
001E00
001E00
003800
003800
007800
00E000
00E000
01C000
038000
070000
070000
1C0000
380000
000000
ENDCHAR
STARTCHAR asterisk
ENCODING 42
SWIDTH 485 0
DWIDTH 17 0
BBX 28 35 -1 -8
BITMAP
00000000
00000000
00003000
00007800
00007800
000FFF00
000F6F00
000FFF00
0001E000
0001E000
001FFE00
003DBC00
003FFC00
0003C000
00078000
00030000
00000000
00000000
00000000
00000000
00000000
00000000
00000000
00000000
00000000
00000000
00000000
00000000
00000000
00000000
00000000
00000000
00000000
00000000
00000000
ENDCHAR
STARTCHAR plus
ENCODING 43
SWIDTH 542 0
DWIDTH 19 0
BBX 30 35 -1 -8
BITMAP
00000000
00000000
00000000
00000000
00000000
00000000
00000000
00000000
00000000
00000000
00007000
0000E000
0000E000
0000E000
0001C000
0001C000
0001C000
01FFFF00
01FFFF00
00038000
00070000
00070000
00070000
000E0000
000E0000
000E0000
00000000
00000000
00000000
00000000
00000000
00000000
00000000
00000000
00000000
ENDCHAR
STARTCHAR comma
ENCODING 44
SWIDTH 257 0
DWIDTH 9 0
BBX 20 35 -1 -8
BITMAP
000000
000000
000000
000000
000000
000000
000000
000000
000000
000000
000000
000000
000000
000000
000000
000000
000000
000000
000000
000000
000000
000000
000000
01C000
03E000
03E000
03C000
01C000
018000
0E0000
000000
000000
000000
000000
000000
ENDCHAR
STARTCHAR minus
ENCODING 45
SWIDTH 314 0
DWIDTH 11 0
BBX 22 35 -1 -8
BITMAP
000000
000000
000000
000000
000000
000000
000000
000000
000000
000000
000000
000000
000000
000000
000000
000000
000000
01FF00
01FF00
000000
000000
000000
000000
000000
000000
000000
000000
000000
000000
000000
000000
000000
000000
000000
000000
ENDCHAR
STARTCHAR period
ENCODING 46
SWIDTH 257 0
DWIDTH 9 0
BBX 20 35 -1 -8
BITMAP
000000
000000
000000
000000
000000
000000
000000
000000
000000
000000
000000
000000
000000
000000
000000
000000
000000
000000
000000
000000
000000
000000
000000
01C000
03E000
03E000
038000
000000
000000
000000
000000
000000
000000
000000
000000
ENDCHAR
STARTCHAR slash
ENCODING 47
SWIDTH 257 0
DWIDTH 9 0
BBX 20 35 -1 -8
BITMAP
000000
000000
000000
000000
000070
0000E0
0000E0
0001C0
000380
000380
000700
000E00
000E00
001C00
003800
003800
003800
00E000
00E000
00E000
038000
038000
038000
070000
0E0000
0E0000
1C0000
1C0000
000000
000000
000000
000000
000000
000000
000000
ENDCHAR
STARTCHAR zero
ENCODING 48
SWIDTH 485 0
DWIDTH 17 0
BBX 28 35 -1 -8
BITMAP
00000000
00000000
00000000
00000000
00000000
0000F800
0003DE00
00070700
001E0F00
001C0700
003C0780
00780F00
00780F00
00780F00
00F01E00
00F01E00
00F01E00
01E03C00
01E03C00
01E03C00
03C07800
03C07800
01C07000
03C1E000
01C1C000
00F78000
007C0000
00000000
00000000
00000000
00000000
00000000
00000000
00000000
00000000
ENDCHAR
STARTCHAR one
ENCODING 49
SWIDTH 485 0
DWIDTH 17 0
BBX 28 35 -1 -8
BITMAP
00000000
00000000
00000000
00000000
00000000
00003000
00007000
0000F000
0003E000
0007E000
0000E000
0001C000
0001C000
0001C000
00038000
00038000
00038000
00070000
00070000
00070000
000E0000
000E0000
000E0000
001C0000
001C0000
003E0000
01FF0000
00000000
00000000
00000000
00000000
00000000
00000000
00000000
00000000
ENDCHAR
STARTCHAR two
ENCODING 50
SWIDTH 485 0
DWIDTH 17 0
BBX 28 35 -1 -8
BITMAP
00000000
00000000
00000000
00000000
00000000
0001F800
0007FE00
000E3F00
00383E00
00301F00
00001F00
00003E00
00003E00
00003E00
00007800
00007800
0000F000
0001C000
00038000
00070000
001C0000
00380000
00700000
01C03000
03FFF000
07FFE000
0FFFC000
00000000
00000000
00000000
00000000
00000000
00000000
00000000
00000000
ENDCHAR
STARTCHAR three
ENCODING 51
SWIDTH 485 0
DWIDTH 17 0
BBX 28 35 -1 -8
BITMAP
00000000
00000000
00000000
00000000
00000000
0000FC00
0003FF00
00071F00
000C1F00
00000F00
00000F00
00001C00
00003C00
00003800
0001E000
000FF800
0001FC00
0000F800
00007C00
00003C00
00007800
00007800
00007800
0000E000
03C1E000
03E3C000
01FE0000
00000000
00000000
00000000
00000000
00000000
00000000
00000000
00000000
ENDCHAR
STARTCHAR four
ENCODING 52
SWIDTH 485 0
DWIDTH 17 0
BBX 28 35 -1 -8
BITMAP
00000000
00000000
00000000
00000000
00000000
00000F00
00000F00
00001F00
00007E00
0000FE00
0000FE00
0003BC00
00073C00
000E3C00
001C7800
00387800
00707800
01C0F000
01FFFC00
01FFFC00
03FFF800
0001E000
0001E000
0003C000
0003C000
0003C000
00078000
00000000
00000000
00000000
00000000
00000000
00000000
00000000
00000000
ENDCHAR
STARTCHAR five
ENCODING 53
SWIDTH 485 0
DWIDTH 17 0
BBX 28 35 -1 -8
BITMAP
00000000
00000000
00000000
00000000
00000000
0001FF00
0001FF00
0001FE00
00060000
00060000
000C0000
001E0000
003FC000
003FF000
0003F000
0000F800
00007800
00007800
00007800
00003800
00007000
00007000
01C0E000
07C1C000
03E78000
01FF0000
00F80000
00000000
00000000
00000000
00000000
00000000
00000000
00000000
00000000
ENDCHAR
STARTCHAR six
ENCODING 54
SWIDTH 485 0
DWIDTH 17 0
BBX 28 35 -1 -8
BITMAP
00000000
00000000
00000000
00000000
00000000
00003E00
0000F000
0001C000
00070000
000F0000
000E0000
003C0000
00380000
0079F000
00FFF800
00FC7C00
00F83E00
01E03C00
01E03C00
01E03C00
03C07800
03C07800
01E0F000
03C1E000
01E3C000
00FF8000
007C0000
00000000
00000000
00000000
00000000
00000000
00000000
00000000
00000000
ENDCHAR
STARTCHAR seven
ENCODING 55
SWIDTH 485 0
DWIDTH 17 0
BBX 28 35 -1 -8
BITMAP
00000000
00000000
00000000
00000000
00000000
000FFFC0
000FFF80
001FFF80
00300700
00000E00
00000E00
00001C00
00003800
00003800
00007000
0000E000
0000E000
0001C000
00038000
00038000
00070000
000E0000
000E0000
001C0000
00380000
00380000
00700000
00000000
00000000
00000000
00000000
00000000
00000000
00000000
00000000
ENDCHAR
STARTCHAR eight
ENCODING 56
SWIDTH 485 0
DWIDTH 17 0
BBX 28 35 -1 -8
BITMAP
00000000
00000000
00000000
00000000
00000000
0001FC00
00078F00
00070700
001E0700
001E0700
001E0700
001E0E00
001F1C00
000FF800
000FF000
001FF800
0039FC00
00E0F800
00E07C00
01C03C00
03807800
03803800
03803800
03006000
0380E000
01C1C000
00FE0000
00000000
00000000
00000000
00000000
00000000
00000000
00000000
00000000
ENDCHAR
STARTCHAR nine
ENCODING 57
SWIDTH 485 0
DWIDTH 17 0
BBX 28 35 -1 -8
BITMAP
00000000
00000000
00000000
00000000
00000000
0000F800
0003FE00
00078F00
001E0F00
001C0700
003C0780
00780F00
00780F00
00780F00
00F01E00
00F81E00
007C3E00
007FFC00
001F3C00
00003800
0000F000
0000E000
0001E000
00038000
00070000
001E0000
01F00000
00000000
00000000
00000000
00000000
00000000
00000000
00000000
00000000
ENDCHAR
STARTCHAR colon
ENCODING 58
SWIDTH 257 0
DWIDTH 9 0
BBX 20 35 -1 -8
BITMAP
000000
000000
000000
000000
000000
000000
000000
000000
000000
000000
000000
000000
001C00
003E00
007C00
003800
000000
000000
000000
000000
000000
000000
000000
01C000
03E000
03E000
038000
000000
000000
000000
000000
000000
000000
000000
000000
ENDCHAR
STARTCHAR semicolon
ENCODING 59
SWIDTH 257 0
DWIDTH 9 0
BBX 20 35 -1 -8
BITMAP
000000
000000
000000
000000
000000
000000
000000
000000
000000
000000
000000
000000
001C00
003E00
007C00
003800
000000
000000
000000
000000
000000
000000
000000
000000
01C000
03E000
03C000
01C000
018000
0E0000
000000
000000
000000
000000
000000
ENDCHAR
STARTCHAR less
ENCODING 60
SWIDTH 542 0
DWIDTH 19 0
BBX 30 35 -1 -8
BITMAP
00000000
00000000
00000000
00000000
00000000
00000000
00000000
00000000
00000000
000000E0
000003E0
00001F00
00007E00
0001F000
000F8000
003E0000
00F80000
01F00000
007C0000
001F0000
000F8000
0003E000
0000F800
00007C00
00001C00
00000000
00000000
00000000
00000000
00000000
00000000
00000000
00000000
00000000
00000000
ENDCHAR
STARTCHAR equal
ENCODING 61
SWIDTH 542 0
DWIDTH 19 0
BBX 30 35 -1 -8
BITMAP
00000000
00000000
00000000
00000000
00000000
00000000
00000000
00000000
00000000
00000000
00000000
00000000
007FFFC0
007FFFC0
00000000
00000000
00000000
00000000
01FFFF00
01FFFF00
00000000
00000000
00000000
00000000
00000000
00000000
00000000
00000000
00000000
00000000
00000000
00000000
00000000
00000000
00000000
ENDCHAR
STARTCHAR greater
ENCODING 62
SWIDTH 542 0
DWIDTH 19 0
BBX 30 35 -1 -8
BITMAP
00000000
00000000
00000000
00000000
00000000
00000000
00000000
00000000
00000000
00380000
003E0000
001F0000
0007C000
0001F000
0000F800
00003E00
00000F80
00001F00
00007C00
0001F000
000F8000
003E0000
00F80000
07C00000
07000000
00000000
00000000
00000000
00000000
00000000
00000000
00000000
00000000
00000000
00000000
ENDCHAR
STARTCHAR question
ENCODING 63
SWIDTH 428 0
DWIDTH 15 0
BBX 26 35 -1 -8
BITMAP
00000000
00000000
00000000
00000000
0003F800
000E3C00
001C3C00
001C1E00
003C3C00
003C3C00
00183800
0000F000
0000E000
0001C000
00038000
00030000
00070000
000C0000
000C0000
000C0000
00000000
00000000
00000000
00700000
00F80000
00F80000
00E00000
00000000
00000000
00000000
00000000
00000000
00000000
00000000
00000000
ENDCHAR
STARTCHAR at
ENCODING 64
SWIDTH 857 0
DWIDTH 30 0
BBX 41 35 -1 -8
BITMAP
000000000000
000000000000
000000000000
000000000000
000000000000
00000FFC0000
00003C0F0000
0000F003C000
0003C001C000
00078000E000
000F00007000
001E0000E000
003C03DC7000
003C0F7C7000
00783878E000
00F070707000
00F070707000
01E1C0E0E000
01E1C1C0E000
01E1C1C0E000
03C383838000
01E1C7C38000
01E1EFEF0000
03C0F0F80000
01E000000000
01E000000000
01E000000000
00F000000000
007800E00000
003C07000000
000FFC000000
000000000000
000000000000
000000000000
000000000000
ENDCHAR
STARTCHAR A
ENCODING 65
SWIDTH 657 0
DWIDTH 23 0
BBX 34 35 -1 -8
BITMAP
0000000000
0000000000
0000000000
0000000000
0000000000
00000C0000
00000C0000
00000E0000
00003C0000
00003E0000
00007E0000
0000FC0000
0000FE0000
0001FE0000
0003BE0000
00073E0000
00071F0000
000E3E0000
001C3E0000
001C1F0000
007FFE0000
00701F0000
00701F0000
01C01F0000
01C01F0000
03C03F8000
1FE1FFC000
0000000000
0000000000
0000000000
0000000000
0000000000
0000000000
0000000000
0000000000
ENDCHAR
STARTCHAR B
ENCODING 66
SWIDTH 628 0
DWIDTH 22 0
BBX 33 35 -1 -8
BITMAP
0000000000
0000000000
0000000000
0000000000
0000000000
001FFFC000
0007E1F000
0003C0F800
000780F000
000780F800
000780F800
000F01F000
000F01E000
000F03E000
001E0F8000
001FFF0000
001E0F8000
003C078000
003C07C000
003C03C000
007807C000
007807C000
007807C000
00F01F0000
00F01F0000
01F87E0000
0FFFF00000
0000000000
0000000000
0000000000
0000000000
0000000000
0000000000
0000000000
0000000000
ENDCHAR
STARTCHAR C
ENCODING 67
SWIDTH 628 0
DWIDTH 22 0
BBX 33 35 -1 -8
BITMAP
0000000000
0000000000
0000000000
0000000000
0000000000
00003F9800
0000F8F800
0003E03800
000F803000
000F000000
001F000000
003C000000
007C000000
007C000000
00F8000000
00F8000000
00F8000000
01F0000000
01F0000000
01F0000000
01F0000000
01F0000000
00F800C000
01F8030000
00FE060000
003FFC0000
001FE00000
0000000000
0000000000
0000000000
0000000000
0000000000
0000000000
0000000000
0000000000
ENDCHAR
STARTCHAR D
ENCODING 68
SWIDTH 657 0
DWIDTH 23 0
BBX 34 35 -1 -8
BITMAP
0000000000
0000000000
0000000000
0000000000
0000000000
001FFFC000
0007E3F000
0003C0F800
000780F800
0007807800
0007807C00
000F007800
000F007C00
000F007C00
001E00F800
001E00F800
001E00F800
003C01F000
003C01F000
003C01F000
007803C000
007807C000
0078078000
00F01F0000
00F03E0000
01F8FC0000
0FFFE00000
0000000000
0000000000
0000000000
0000000000
0000000000
0000000000
0000000000
0000000000
ENDCHAR
STARTCHAR E
ENCODING 69
SWIDTH 600 0
DWIDTH 21 0
BBX 32 35 -1 -8
BITMAP
00000000
00000000
00000000
00000000
00000000
001FFFF0
0007E070
0003C030
00078060
00078000
00078000
000F0000
000F0300
000F0300
001E0E00
001FFE00
001E0E00
003C0C00
003C0C00
003C0000
00780000
00780000
00780000
00F00300
00F00700
01F81E00
0FFFFC00
00000000
00000000
00000000
00000000
00000000
00000000
00000000
00000000
ENDCHAR
STARTCHAR F
ENCODING 70
SWIDTH 542 0
DWIDTH 19 0
BBX 30 35 -1 -8
BITMAP
00000000
00000000
00000000
00000000
00000000
001FFFF0
0007E070
0003C030
00078060
00078000
00078000
000F0000
000F0300
000F0300
001E0E00
001FFE00
001E0E00
003C0C00
003C0C00
003C0000
00780000
00780000
00780000
00F00000
00F00000
01F80000
0FFC0000
00000000
00000000
00000000
00000000
00000000
00000000
00000000
00000000
ENDCHAR
STARTCHAR G
ENCODING 71
SWIDTH 685 0
DWIDTH 24 0
BBX 35 35 -1 -8
BITMAP
0000000000
0000000000
0000000000
0000000000
0000000000
00001FCC00
00007C7C00
0001F01C00
0007C01800
0007800000
000F800000
001E000000
003E000000
003E000000
007C000000
007C000000
007C07FE00
00F803F000
00F801E000
00F801E000
00F803C000
00F803C000
007C03C000
00FC078000
007F070000
001FFE0000
000FF00000
0000000000
0000000000
0000000000
0000000000
0000000000
0000000000
0000000000
0000000000
ENDCHAR
STARTCHAR H
ENCODING 72
SWIDTH 685 0
DWIDTH 24 0
BBX 35 35 -1 -8
BITMAP
0000000000
0000000000
0000000000
0000000000
0000000000
001FF9FF80
0007E07E00
0003C03C00
0007807800
0007807800
0007807800
000F00F000
000F00F000
000F00F000
001E01E000
001FFFE000
001E01E000
003C03C000
003C03C000
003C03C000
0078078000
0078078000
0078078000
00F00F0000
00F00F0000
01F81F8000
0FFCFFC000
0000000000
0000000000
0000000000
0000000000
0000000000
0000000000
0000000000
0000000000
ENDCHAR
STARTCHAR I
ENCODING 73
SWIDTH 342 0
DWIDTH 12 0
BBX 23 35 -1 -8
BITMAP
000000
000000
000000
000000
000000
001FF8
0007E0
0003C0
000780
000780
000780
000F00
000F00
000F00
001E00
001E00
001E00
003C00
003C00
003C00
007800
007800
007800
00F000
00F000
01F800
0FFC00
000000
000000
000000
000000
000000
000000
000000
000000
ENDCHAR
STARTCHAR J
ENCODING 74
SWIDTH 400 0
DWIDTH 14 0
BBX 25 35 -1 -8
BITMAP
00000000
00000000
00000000
00000000
00000000
0007FE00
0001F800
0000F000
0001E000
0001E000
0001E000
0003C000
0003C000
0003C000
00078000
00078000
00078000
000F0000
000F0000
000F0000
001E0000
001E0000
031E0000
0F3C0000
0F3C0000
07B80000
03E00000
00000000
00000000
00000000
00000000
00000000
00000000
00000000
00000000
ENDCHAR
STARTCHAR K
ENCODING 75
SWIDTH 657 0
DWIDTH 23 0
BBX 34 35 -1 -8
BITMAP
0000000000
0000000000
0000000000
0000000000
0000000000
001FF9FE00
0007E07800
0003C07000
000781C000
0007838000
0007870000
000F1C0000
000F380000
000F700000
001FF00000
001FF80000
001F780000
003C780000
003C3C0000
003C3C0000
00783C0000
00781E0000
00781E0000
00F01E0000
00F00F0000
01F81F8000
0FFCFFC000
0000000000
0000000000
0000000000
0000000000
0000000000
0000000000
0000000000
0000000000
ENDCHAR
STARTCHAR L
ENCODING 76
SWIDTH 600 0
DWIDTH 21 0
BBX 32 35 -1 -8
BITMAP
00000000
00000000
00000000
00000000
00000000
001FF800
0007E000
0003C000
00078000
00078000
00078000
000F0000
000F0000
000F0000
001E0000
001E0000
001E0000
003C0000
003C0000
003C0000
00780000
00780000
00780000
00F00300
00F00700
01F81E00
0FFFFC00
00000000
00000000
00000000
00000000
00000000
00000000
00000000
00000000
ENDCHAR
STARTCHAR M
ENCODING 77
SWIDTH 828 0
DWIDTH 29 0
BBX 40 35 -1 -8
BITMAP
0000000000
0000000000
0000000000
0000000000
0000000000
001FE001FC
0007E001F0
0003E003E0
0007E007C0
0007E007C0
0007F00FC0
000DE01F80
000DE03780
000DF03780
0019E06F00
0019F0CF00
0018F0CF00
0031E31E00
0031F31E00
0030F31E00
0061FC3C00
0060FC3C00
0060F83C00
00C0F07800
00C0F07800
01E060FC00
0FF0C7FE00
0000000000
0000000000
0000000000
0000000000
0000000000
0000000000
0000000000
0000000000
ENDCHAR
STARTCHAR N
ENCODING 78
SWIDTH 685 0
DWIDTH 24 0
BBX 35 35 -1 -8
BITMAP
0000000000
0000000000
0000000000
0000000000
0000000000
001F807F80
0007C01E00
0003E00C00
0007C01800
0007E01800
0007F01800
000DF03000
000DF03000
000CF83000
0018F86000
00187C6000
00187C6000
00307CC000
00303EC000
00301FC000
00603F8000
00601F8000
00600F8000
00C00F0000
00C00F0000
01E0070000
0FF0060000
0000000000
0000000000
0000000000
0000000000
0000000000
0000000000
0000000000
0000000000
ENDCHAR
STARTCHAR O
ENCODING 79
SWIDTH 628 0
DWIDTH 22 0
BBX 33 35 -1 -8
BITMAP
0000000000
0000000000
0000000000
0000000000
0000000000
00007F8000
0001F3E000
0003C0F000
000F00F000
000F00F000
001E007800
003C00F000
007C00F800
007C00F800
00F801F000
00F801F000
00F801F000
01F003E000
01F003E000
01F003E000
01E0078000
01E0078000
00F00F0000
01E01E0000
00F03C0000
007CF80000
003FC00000
0000000000
0000000000
0000000000
0000000000
0000000000
0000000000
0000000000
0000000000
ENDCHAR
STARTCHAR P
ENCODING 80
SWIDTH 571 0
DWIDTH 20 0
BBX 31 35 -1 -8
BITMAP
00000000
00000000
00000000
00000000
00000000
001FFFC0
0007E3F0
0003C1F0
000781F0
000781F0
000781F0
000F03E0
000F03E0
000F07C0
001E1F80
001FFE00
001E0000
003C0000
003C0000
003C0000
00780000
00780000
00780000
00F00000
00F00000
01F80000
0FFC0000
00000000
00000000
00000000
00000000
00000000
00000000
00000000
00000000
ENDCHAR
STARTCHAR Q
ENCODING 81
SWIDTH 628 0
DWIDTH 22 0
BBX 33 35 -1 -8
BITMAP
0000000000
0000000000
0000000000
0000000000
0000000000
00007F8000
0001F3E000
0003C0F000
000F00F000
000F00F000
001E007800
003C00F000
007C00F800
007C00F800
00F801F000
00F801F000
00F801F000
01F003E000
01F003E000
01F003E000
01E0078000
01E0078000
00F00F0000
01E01E0000
00F03C0000
007CF80000
003FC00000
000F800000
0007800000
000F800000
0007C00000
0001F80000
0000000000
0000000000
0000000000
ENDCHAR
STARTCHAR R
ENCODING 82
SWIDTH 628 0
DWIDTH 22 0
BBX 33 35 -1 -8
BITMAP
0000000000
0000000000
0000000000
0000000000
0000000000
001FFFC000
0007E3F000
0003C1F000
000781F000
000781F000
000781F000
000F03E000
000F03E000
000F07C000
001E1F8000
001FFE0000
001EF80000
003CF00000
003C780000
003C7C0000
0078780000
00783C0000
00783E0000
00F03C0000
00F01E0000
01F81F0000
0FFC1F8000
0000000000
0000000000
0000000000
0000000000
0000000000
0000000000
0000000000
0000000000
ENDCHAR
STARTCHAR S
ENCODING 83
SWIDTH 485 0
DWIDTH 17 0
BBX 28 35 -1 -8
BITMAP
00000000
00000000
00000000
00000000
00000000
0001FD80
00078F80
000F0380
001E0300
003E0300
003E0000
007C0000
003E0000
003F8000
003FC000
001FE000
0007F800
0007F800
0001F800
0000FC00
0000F800
0300F800
0300F800
0701E000
0781E000
07C3C000
0DFE0000
00000000
00000000
00000000
00000000
00000000
00000000
00000000
00000000
ENDCHAR
STARTCHAR T
ENCODING 84
SWIDTH 628 0
DWIDTH 22 0
BBX 33 35 -1 -8
BITMAP
0000000000
0000000000
0000000000
0000000000
0000000000
001FFFFE00
001C1E0E00
00181E0600
00303C0C00
00003C0000
00003C0000
0000780000
0000780000
0000780000
0000F00000
0000F00000
0000F00000
0001E00000
0001E00000
0001E00000
0003C00000
0003C00000
0003C00000
0007800000
0007800000
000FC00000
007FE00000
0000000000
0000000000
0000000000
0000000000
0000000000
0000000000
0000000000
0000000000
ENDCHAR
STARTCHAR U
ENCODING 85
SWIDTH 685 0
DWIDTH 24 0
BBX 35 35 -1 -8
BITMAP
0000000000
0000000000
0000000000
0000000000
0000000000
001FF87F80
0007E01E00
0003C00C00
0007801800
0007801800
0007801800
000F003000
000F003000
000F003000
001E006000
001E006000
001E006000
003C00C000
003C00C000
003C00C000
0078018000
0078018000
007C018000
0078060000
007C060000
003F1C0000
001FE00000
0000000000
0000000000
0000000000
0000000000
0000000000
0000000000
0000000000
0000000000
ENDCHAR
STARTCHAR V
ENCODING 86
SWIDTH 657 0
DWIDTH 23 0
BBX 34 35 -1 -8
BITMAP
0000000000
0000000000
0000000000
0000000000
0000000000
003FF03F80
000FC00E00
0007800E00
000F801800
0007803800
0007C03000
0007806000
000780E000
0007C0C000
0007838000
0007C30000
0003C70000
0007CC0000
0003CC0000
0003FC0000
0007F00000
0003F00000
0003E00000
0003C00000
0003800000
0001800000
0003000000
0000000000
0000000000
0000000000
0000000000
0000000000
0000000000
0000000000
0000000000
ENDCHAR
STARTCHAR W
ENCODING 87
SWIDTH 971 0
DWIDTH 34 0
BBX 45 35 -1 -8
BITMAP
000000000000
000000000000
000000000000
000000000000
000000000000
003FF3FF1FF0
000FE1FC07C0
0007C0F80380
000780F00600
0007C0F80E00
0003C0780C00
0007C1F81800
0007C1F83800
0003C1F83000
0007C3F86000
0003C778E000
0003E67CC000
0003CC798000
0003DC7B8000
0003F87F0000
0003F07E0000
0003F07E0000
0001E03C0000
0003C0780000
000180300000
000180300000
000300600000
000000000000
000000000000
000000000000
000000000000
000000000000
000000000000
000000000000
000000000000
ENDCHAR
STARTCHAR X
ENCODING 88
SWIDTH 685 0
DWIDTH 24 0
BBX 35 35 -1 -8
BITMAP
0000000000
0000000000
0000000000
0000000000
0000000000
001FF07F00
0007C01C00
0003E01800
0003E06000
0003E0C000
0001F0C000
0001F30000
0001F60000
0000FC0000
0000F80000
0000FC0000
00007C0000
0001FC0000
0003BE0000
00033E0000
000C3E0000
001C1F0000
00181F0000
00601F0000
00E00F8000
03C00FC000
1FF07FE000
0000000000
0000000000
0000000000
0000000000
0000000000
0000000000
0000000000
0000000000
ENDCHAR
STARTCHAR Y
ENCODING 89
SWIDTH 657 0
DWIDTH 23 0
BBX 34 35 -1 -8
BITMAP
0000000000
0000000000
0000000000
0000000000
0000000000
003FF07F80
000FC01E00
0003E00C00
0003C03000
0003E03000
0001F06000
0001E18000
0001F18000
0000FB0000
0000FC0000
0000FC0000
0000780000
0000F00000
0000F00000
0000F00000
0001E00000
0001E00000
0001E00000
0003C00000
0003C00000
0007E00000
003FF00000
0000000000
0000000000
0000000000
0000000000
0000000000
0000000000
0000000000
0000000000
ENDCHAR
STARTCHAR Z
ENCODING 90
SWIDTH 628 0
DWIDTH 22 0
BBX 33 35 -1 -8
BITMAP
0000000000
0000000000
0000000000
0000000000
0000000000
000FFFFE00
000E007C00
000C007C00
001801F000
000003E000
000007C000
00000F8000
00001F0000
00003E0000
0000F80000
0000F80000
0001F00000
0007C00000
000F800000
000F800000
003E000000
007C000000
00F8000000
01F0018000
03E0038000
07C00F0000
1FFFFE0000
0000000000
0000000000
0000000000
0000000000
0000000000
0000000000
0000000000
0000000000
ENDCHAR
STARTCHAR bracketleft
ENCODING 91
SWIDTH 342 0
DWIDTH 12 0
BBX 23 35 -1 -8
BITMAP
000000
000000
000000
000000
0007F8
000F80
000F00
000F00
001E00
001E00
001E00
003C00
003C00
003C00
007800
007800
007800
00F000
00F000
00F000
01E000
01E000
01E000
03C000
03C000
03C000
078000
078000
078000
0F0000
0F0000
0F8000
1FE000
000000
000000
ENDCHAR
STARTCHAR backslash
ENCODING 92
SWIDTH 257 0
DWIDTH 9 0
BBX 20 35 -1 -8
BITMAP
000000
000000
000000
000000
001C00
003800
003800
001C00
003800
003800
001C00
003800
003800
001C00
003800
003800
003800
003800
003800
003800
003800
003800
003800
007000
003800
003800
007000
000000
000000
000000
000000
000000
000000
000000
000000
ENDCHAR
STARTCHAR bracketright
ENCODING 93
SWIDTH 342 0
DWIDTH 12 0
BBX 23 35 -1 -8
BITMAP
000000
000000
000000
000000
0007F8
0001F0
0000F0
0000F0
0001E0
0001E0
0001E0
0003C0
0003C0
0003C0
000780
000780
000780
000F00
000F00
000F00
001E00
001E00
001E00
003C00
003C00
003C00
007800
007800
007800
00F000
00F000
01F000
1FE000
000000
000000
ENDCHAR
STARTCHAR asciicircum
ENCODING 94
SWIDTH 485 0
DWIDTH 17 0
BBX 28 35 -1 -8
BITMAP
00000000
00000000
00000000
00000000
00003800
0000F800
0001FC00
0003DE00
000F1E00
001E0F00
003C0780
00000000
00000000
00000000
00000000
00000000
00000000
00000000
00000000
00000000
00000000
00000000
00000000
00000000
00000000
00000000
00000000
00000000
00000000
00000000
00000000
00000000
00000000
00000000
00000000
ENDCHAR
STARTCHAR underscore
ENCODING 95
SWIDTH 485 0
DWIDTH 17 0
BBX 28 35 -1 -8
BITMAP
00000000
00000000
00000000
00000000
00000000
00000000
00000000
00000000
00000000
00000000
00000000
00000000
00000000
00000000
00000000
00000000
00000000
00000000
00000000
00000000
00000000
00000000
00000000
00000000
00000000
00000000
00000000
00000000
1FFFF000
3FFFE000
00000000
00000000
00000000
00000000
00000000
ENDCHAR
STARTCHAR quoteleft
ENCODING 96
SWIDTH 342 0
DWIDTH 12 0
BBX 23 35 -1 -8
BITMAP
000000
000000
000000
000000
0001C0
0003C0
0000E0
000030
000000
000000
000000
000000
000000
000000
000000
000000
000000
000000
000000
000000
000000
000000
000000
000000
000000
000000
000000
000000
000000
000000
000000
000000
000000
000000
000000
ENDCHAR
STARTCHAR a
ENCODING 97
SWIDTH 428 0
DWIDTH 15 0
BBX 26 35 -1 -8
BITMAP
00000000
00000000
00000000
00000000
00000000
00000000
00000000
00000000
00000000
00000000
00000000
00000000
000FC000
003CE000
00F1E000
00F1E000
0061E000
0007C000
001FC000
007BC000
01E78000
03C78000
03C78000
078F0000
07DF0000
03FFC000
03CF0000
00000000
00000000
00000000
00000000
00000000
00000000
00000000
00000000
ENDCHAR
STARTCHAR b
ENCODING 98
SWIDTH 514 0
DWIDTH 18 0
BBX 29 35 -1 -8
BITMAP
00000000
00000000
00000000
00000000
0001C000
00078000
001F8000
00078000
000F0000
000F0000
000F0000
001E0000
001EF800
001FFE00
003C3E00
003C1E00
003C1F00
00781E00
00781E00
00781E00
00F03C00
00F03C00
00F07800
01E0F000
01E1E000
00F7C000
007E0000
00000000
00000000
00000000
00000000
00000000
00000000
00000000
00000000
ENDCHAR
STARTCHAR c
ENCODING 99
SWIDTH 428 0
DWIDTH 15 0
BBX 26 35 -1 -8
BITMAP
00000000
00000000
00000000
00000000
00000000
00000000
00000000
00000000
00000000
00000000
00000000
00000000
0007C000
001EF000
0078F000
0070F000
00F06000
01E00000
01E00000
01E00000
03C00000
03C00000
03C00000
07C0C000
03E18000
01FF0000
01FC0000
00000000
00000000
00000000
00000000
00000000
00000000
00000000
00000000
ENDCHAR
STARTCHAR d
ENCODING 100
SWIDTH 514 0
DWIDTH 18 0
BBX 29 35 -1 -8
BITMAP
00000000
00000000
00000000
00000000
000000E0
000003C0
00000FC0
000003C0
00000780
00000780
00000780
00000F00
0007CF00
001E7F00
00783E00
00701E00
00F01E00
01E03C00
01E03C00
01E03C00
03C07800
03C07800
03E07800
03C0F000
03F1F800
01FFE000
00F98000
00000000
00000000
00000000
00000000
00000000
00000000
00000000
00000000
ENDCHAR
STARTCHAR e
ENCODING 101
SWIDTH 428 0
DWIDTH 15 0
BBX 26 35 -1 -8
BITMAP
00000000
00000000
00000000
00000000
00000000
00000000
00000000
00000000
00000000
00000000
00000000
00000000
00078000
001FE000
0079E000
0070E000
00F0F000
01E1E000
01FFE000
01E00000
03C00000
03C00000
03E00000
03E1C000
03FF8000
01FF0000
00F80000
00000000
00000000
00000000
00000000
00000000
00000000
00000000
00000000
ENDCHAR
STARTCHAR f
ENCODING 102
SWIDTH 371 0
DWIDTH 13 0
BBX 24 35 -1 -8
BITMAP
000000
000000
000000
000000
0000FC
0003BC
00079C
000780
000F00
000F00
000F00
001E00
007F80
001E00
003C00
003C00
003C00
007800
007800
007800
00F000
00F000
00F000
01E000
01E000
03F000
0FF000
000000
000000
000000
000000
000000
000000
000000
000000
ENDCHAR
STARTCHAR g
ENCODING 103
SWIDTH 457 0
DWIDTH 16 0
BBX 27 35 -1 -8
BITMAP
00000000
00000000
00000000
00000000
00000000
00000000
00000000
00000000
00000000
00000000
00000000
00000000
0007F000
001EFE00
0070F000
00707800
00F07800
01E0F000
01E0E000
00F0E000
01F78000
00FE0000
00600000
01800000
03800000
03FF0000
07FF8000
03FFC000
0181E000
0E01C000
1E01C000
1F038000
3FFE0000
1FFC0000
07F80000
ENDCHAR
STARTCHAR h
ENCODING 104
SWIDTH 514 0
DWIDTH 18 0
BBX 29 35 -1 -8
BITMAP
00000000
00000000
00000000
00000000
0001C000
00078000
001F8000
00078000
000F0000
000F0000
000F0000
001E0000
001EF800
001FFC00
003E7C00
003C3C00
003C3C00
00787800
00787800
00787800
00F0F000
00F0F000
00F0F000
01E1E000
01E1E000
03F3F000
0FFFF000
00000000
00000000
00000000
00000000
00000000
00000000
00000000
00000000
ENDCHAR
STARTCHAR i
ENCODING 105
SWIDTH 285 0
DWIDTH 10 0
BBX 21 35 -1 -8
BITMAP
000000
000000
000000
000000
000180
000780
000780
000300
000000
000000
000000
000000
000600
001E00
00FC00
003C00
003C00
007800
007800
007800
00F000
00F000
00F000
01E000
01E000
03F000
0FF000
000000
000000
000000
000000
000000
000000
000000
000000
ENDCHAR
STARTCHAR j
ENCODING 106
SWIDTH 285 0
DWIDTH 10 0
BBX 21 35 -1 -8
BITMAP
000000
000000
000000
000000
000180
000780
000780
000300
000000
000000
000000
000000
000600
001E00
00FC00
003C00
003C00
007800
007800
007800
00F000
00F000
00F000
01E000
01E000
01E000
03C000
03C000
03C000
078000
078000
078000
0E0000
7E0000
7C0000
ENDCHAR
STARTCHAR k
ENCODING 107
SWIDTH 485 0
DWIDTH 17 0
BBX 28 35 -1 -8
BITMAP
00000000
00000000
00000000
00000000
0001C000
00078000
001F8000
00078000
000F0000
000F0000
000F0000
001E0000
001E7C00
001E3000
003CC000
003D8000
003F0000
007C0000
007E0000
007F0000
00FF0000
00F78000
00F3C000
01E3C000
01E1E000
03F0F000
0FF7F000
00000000
00000000
00000000
00000000
00000000
00000000
00000000
00000000
ENDCHAR
STARTCHAR l
ENCODING 108
SWIDTH 285 0
DWIDTH 10 0
BBX 21 35 -1 -8
BITMAP
000000
000000
000000
000000
0001C0
000780
001F80
000780
000F00
000F00
000F00
001E00
001E00
001E00
003C00
003C00
003C00
007800
007800
007800
00F000
00F000
00F000
01E000
01E000
03F000
0FF000
000000
000000
000000
000000
000000
000000
000000
000000
ENDCHAR
STARTCHAR m
ENCODING 109
SWIDTH 714 0
DWIDTH 25 0
BBX 36 35 -1 -8
BITMAP
0000000000
0000000000
0000000000
0000000000
0000000000
0000000000
0000000000
0000000000
0000000000
0000000000
0000000000
0000000000
000EF8F800
001FFDFC00
00FE7E7C00
003C3C3C00
003C3C3C00
0078787800
0078787800
0078787800
00F0F0F000
00F0F0F000
00F0F0F000
01E1E1E000
01E1E1E000
03F3F3F000
0FFFFFF000
0000000000
0000000000
0000000000
0000000000
0000000000
0000000000
0000000000
0000000000
ENDCHAR
STARTCHAR n
ENCODING 110
SWIDTH 485 0
DWIDTH 17 0
BBX 28 35 -1 -8
BITMAP
00000000
00000000
00000000
00000000
00000000
00000000
00000000
00000000
00000000
00000000
00000000
00000000
000EF800
001FFC00
00FE7C00
003C3C00
003C3C00
00787800
00787800
00787800
00F0F000
00F0F000
00F0F000
01E1E000
01E1E000
03F3F000
0FFFF000
00000000
00000000
00000000
00000000
00000000
00000000
00000000
00000000
ENDCHAR
STARTCHAR o
ENCODING 111
SWIDTH 485 0
DWIDTH 17 0
BBX 28 35 -1 -8
BITMAP
00000000
00000000
00000000
00000000
00000000
00000000
00000000
00000000
00000000
00000000
00000000
00000000
0003F000
000F7C00
00387C00
00783C00
00703E00
01E03C00
01E03C00
01E03C00
03C07800
03C07800
03C07000
03C1E000
03E1C000
01F78000
00FC0000
00000000
00000000
00000000
00000000
00000000
00000000
00000000
00000000
ENDCHAR
STARTCHAR p
ENCODING 112
SWIDTH 514 0
DWIDTH 18 0
BBX 29 35 -1 -8
BITMAP
00000000
00000000
00000000
00000000
00000000
00000000
00000000
00000000
00000000
00000000
00000000
00000000
000EF800
001FFE00
00FC3E00
003C1E00
003C1F00
00781E00
00781E00
00781E00
00F03C00
00F03C00
00F07800
01E0F000
01E1E000
01F7C000
03FE0000
03C00000
03C00000
07800000
07800000
07800000
0F000000
1F800000
3FC00000
ENDCHAR
STARTCHAR q
ENCODING 113
SWIDTH 485 0
DWIDTH 17 0
BBX 28 35 -1 -8
BITMAP
00000000
00000000
00000000
00000000
00000000
00000000
00000000
00000000
00000000
00000000
00000000
00000000
0007C600
001E7E00
00783C00
00703C00
00F03C00
01E07800
01E07800
01E07800
03C0F000
03C0F000
03E0F000
03C1E000
03F1E000
01FFE000
00FBC000
0003C000
0003C000
00078000
00078000
00078000
000F0000
001F8000
003FC000
ENDCHAR
STARTCHAR r
ENCODING 114
SWIDTH 400 0
DWIDTH 14 0
BBX 25 35 -1 -8
BITMAP
00000000
00000000
00000000
00000000
00000000
00000000
00000000
00000000
00000000
00000000
00000000
00000000
000EF000
001FF800
00FEF000
003C0000
003C0000
00780000
00780000
00780000
00F00000
00F00000
00F00000
01E00000
01E00000
03F00000
0FF00000
00000000
00000000
00000000
00000000
00000000
00000000
00000000
00000000
ENDCHAR
STARTCHAR s
ENCODING 115
SWIDTH 400 0
DWIDTH 14 0
BBX 25 35 -1 -8
BITMAP
00000000
00000000
00000000
00000000
00000000
00000000
00000000
00000000
00000000
00000000
00000000
00000000
000FF000
001E7000
00786000
00786000
007C0000
00780000
007E0000
001F8000
000F8000
0007C000
0183C000
03078000
03878000
03EF0000
06FC0000
00000000
00000000
00000000
00000000
00000000
00000000
00000000
00000000
ENDCHAR
STARTCHAR t
ENCODING 116
SWIDTH 285 0
DWIDTH 10 0
BBX 21 35 -1 -8
BITMAP
000000
000000
000000
000000
000000
000000
000000
000180
000300
000700
000F00
001E00
007F00
001E00
003C00
003C00
003C00
007800
007800
007800
00F000
00F000
00F000
01E000
01EC00
00F800
00E000
000000
000000
000000
000000
000000
000000
000000
000000
ENDCHAR
STARTCHAR u
ENCODING 117
SWIDTH 485 0
DWIDTH 17 0
BBX 28 35 -1 -8
BITMAP
00000000
00000000
00000000
00000000
00000000
00000000
00000000
00000000
00000000
00000000
00000000
00000000
007C3E00
003C1E00
00783C00
00783C00
00783C00
00F07800
00F07800
00F07800
01E0F000
01E0F000
01E0F000
03C1E000
01E3F800
00FFE000
00FB8000
00000000
00000000
00000000
00000000
00000000
00000000
00000000
00000000
ENDCHAR
STARTCHAR v
ENCODING 118
SWIDTH 542 0
DWIDTH 19 0
BBX 30 35 -1 -8
BITMAP
00000000
00000000
00000000
00000000
00000000
00000000
00000000
00000000
00000000
00000000
00000000
00000000
007F9FC0
001E0700
003C0C00
001E0C00
001E1800
001E3000
001E3000
000F6000
001EC000
000FC000
000F8000
000F0000
000E0000
00060000
000C0000
00000000
00000000
00000000
00000000
00000000
00000000
00000000
00000000
ENDCHAR
STARTCHAR w
ENCODING 119
SWIDTH 771 0
DWIDTH 27 0
BBX 38 35 -1 -8
BITMAP
0000000000
0000000000
0000000000
0000000000
0000000000
0000000000
0000000000
0000000000
0000000000
0000000000
0000000000
0000000000
007FBFCFC0
001E0F0300
003C1E0600
001E1F0C00
001E1F0C00
003C3F1800
001E6F3000
001E6FB000
001F8FC000
001F8FC000
001F8FC000
001E0F0000
001E0F0000
000C060000
00180C0000
0000000000
0000000000
0000000000
0000000000
0000000000
0000000000
0000000000
0000000000
ENDCHAR
STARTCHAR x
ENCODING 120
SWIDTH 485 0
DWIDTH 17 0
BBX 28 35 -1 -8
BITMAP
00000000
00000000
00000000
00000000
00000000
00000000
00000000
00000000
00000000
00000000
00000000
00000000
007F3F00
001E1C00
001E7000
001E6000
000FE000
000F8000
000F8000
00078000
001F8000
001F8000
003BC000
0063C000
00E3C000
01C1E000
0FEFF000
00000000
00000000
00000000
00000000
00000000
00000000
00000000
00000000
ENDCHAR
STARTCHAR y
ENCODING 121
SWIDTH 542 0
DWIDTH 19 0
BBX 30 35 -1 -8
BITMAP
00000000
00000000
00000000
00000000
00000000
00000000
00000000
00000000
00000000
00000000
00000000
00000000
007F9FC0
001E0700
003C0C00
001E0C00
001E1800
001E3000
001E3000
000F6000
001EC000
000FC000
000F8000
000F0000
000E0000
00060000
000C0000
00180000
00180000
00600000
00600000
00C00000
1F800000
3F000000
1E000000
ENDCHAR
STARTCHAR z
ENCODING 122
SWIDTH 457 0
DWIDTH 16 0
BBX 27 35 -1 -8
BITMAP
00000000
00000000
00000000
00000000
00000000
00000000
00000000
00000000
00000000
00000000
00000000
00000000
003FFE00
00383C00
0060F000
0060F000
0001E000
00078000
00078000
000F0000
003C0000
003C0000
00780000
01E06000
01E06000
03C0E000
0FFFC000
00000000
00000000
00000000
00000000
00000000
00000000
00000000
00000000
ENDCHAR
STARTCHAR braceleft
ENCODING 123
SWIDTH 400 0
DWIDTH 14 0
BBX 25 35 -1 -8
BITMAP
00000000
00000000
00000000
00000F00
00003C00
00007000
0000F000
0000F000
0001E000
0001E000
0001E000
0003C000
0003C000
0003C000
000F0000
000F0000
001E0000
00F00000
003C0000
001E0000
003C0000
001E0000
001E0000
003C0000
003C0000
003C0000
00780000
00780000
00780000
00F00000
00700000
00780000
003C0000
00000000
00000000
ENDCHAR
STARTCHAR bar
ENCODING 124
SWIDTH 285 0
DWIDTH 10 0
BBX 21 35 -1 -8
BITMAP
000000
000000
000000
000000
0003C0
000780
000780
000780
000F00
000F00
000F00
001E00
001E00
001E00
003C00
003C00
003C00
007800
007800
007800
00F000
00F000
00F000
01E000
01E000
01E000
03C000
03C000
000000
000000
000000
000000
000000
000000
000000
ENDCHAR
STARTCHAR braceright
ENCODING 125
SWIDTH 400 0
DWIDTH 14 0
BBX 25 35 -1 -8
BITMAP
00000000
00000000
00000000
00078000
0001E000
0001C000
0001E000
0001E000
0003C000
0003C000
0003C000
00078000
00078000
00078000
00078000
00078000
0003C000
0001E000
00078000
000F0000
001E0000
003C0000
003C0000
00780000
00780000
00780000
00F00000
00F00000
00F00000
01E00000
01C00000
03C00000
1E000000
00000000
00000000
ENDCHAR
STARTCHAR asciitilde
ENCODING 126
SWIDTH 485 0
DWIDTH 17 0
BBX 28 35 -1 -8
BITMAP
00000000
00000000
00000000
00000000
0003E0C0
000FF380
001CFF00
00183E00
00000000
00000000
00000000
00000000
00000000
00000000
00000000
00000000
00000000
00000000
00000000
00000000
00000000
00000000
00000000
00000000
00000000
00000000
00000000
00000000
00000000
00000000
00000000
00000000
00000000
00000000
00000000
ENDCHAR
STARTCHAR C177
ENCODING -1
SWIDTH 342 0
DWIDTH 12 0
BBX 23 35 -1 -8
BITMAP
000000
000000
000000
000000
0003F0
0007E0
0007E0
0007E0
000FC0
000FC0
000FC0
001F80
001F80
001F80
003F00
003F00
003F00
007E00
007E00
007E00
00FC00
00FC00
00FC00
01F800
01F800
01F800
03F000
000000
000000
000000
000000
000000
000000
000000
000000
ENDCHAR
STARTCHAR C200
ENCODING -1
SWIDTH 342 0
DWIDTH 12 0
BBX 23 35 -1 -8
BITMAP
000000
000000
000000
000000
0003F0
0007E0
0007E0
0007E0
000FC0
000FC0
000FC0
001F80
001F80
001F80
003F00
003F00
003F00
007E00
007E00
007E00
00FC00
00FC00
00FC00
01F800
01F800
01F800
03F000
000000
000000
000000
000000
000000
000000
000000
000000
ENDCHAR
STARTCHAR C201
ENCODING -1
SWIDTH 342 0
DWIDTH 12 0
BBX 23 35 -1 -8
BITMAP
000000
000000
000000
000000
0003F0
0007E0
0007E0
0007E0
000FC0
000FC0
000FC0
001F80
001F80
001F80
003F00
003F00
003F00
007E00
007E00
007E00
00FC00
00FC00
00FC00
01F800
01F800
01F800
03F000
000000
000000
000000
000000
000000
000000
000000
000000
ENDCHAR
STARTCHAR C202
ENCODING -1
SWIDTH 342 0
DWIDTH 12 0
BBX 23 35 -1 -8
BITMAP
000000
000000
000000
000000
0003F0
0007E0
0007E0
0007E0
000FC0
000FC0
000FC0
001F80
001F80
001F80
003F00
003F00
003F00
007E00
007E00
007E00
00FC00
00FC00
00FC00
01F800
01F800
01F800
03F000
000000
000000
000000
000000
000000
000000
000000
000000
ENDCHAR
STARTCHAR C203
ENCODING -1
SWIDTH 342 0
DWIDTH 12 0
BBX 23 35 -1 -8
BITMAP
000000
000000
000000
000000
0003F0
0007E0
0007E0
0007E0
000FC0
000FC0
000FC0
001F80
001F80
001F80
003F00
003F00
003F00
007E00
007E00
007E00
00FC00
00FC00
00FC00
01F800
01F800
01F800
03F000
000000
000000
000000
000000
000000
000000
000000
000000
ENDCHAR
STARTCHAR C204
ENCODING -1
SWIDTH 342 0
DWIDTH 12 0
BBX 23 35 -1 -8
BITMAP
000000
000000
000000
000000
0003F0
0007E0
0007E0
0007E0
000FC0
000FC0
000FC0
001F80
001F80
001F80
003F00
003F00
003F00
007E00
007E00
007E00
00FC00
00FC00
00FC00
01F800
01F800
01F800
03F000
000000
000000
000000
000000
000000
000000
000000
000000
ENDCHAR
STARTCHAR C205
ENCODING -1
SWIDTH 342 0
DWIDTH 12 0
BBX 23 35 -1 -8
BITMAP
000000
000000
000000
000000
0003F0
0007E0
0007E0
0007E0
000FC0
000FC0
000FC0
001F80
001F80
001F80
003F00
003F00
003F00
007E00
007E00
007E00
00FC00
00FC00
00FC00
01F800
01F800
01F800
03F000
000000
000000
000000
000000
000000
000000
000000
000000
ENDCHAR
STARTCHAR C206
ENCODING -1
SWIDTH 342 0
DWIDTH 12 0
BBX 23 35 -1 -8
BITMAP
000000
000000
000000
000000
0003F0
0007E0
0007E0
0007E0
000FC0
000FC0
000FC0
001F80
001F80
001F80
003F00
003F00
003F00
007E00
007E00
007E00
00FC00
00FC00
00FC00
01F800
01F800
01F800
03F000
000000
000000
000000
000000
000000
000000
000000
000000
ENDCHAR
STARTCHAR C207
ENCODING -1
SWIDTH 342 0
DWIDTH 12 0
BBX 23 35 -1 -8
BITMAP
000000
000000
000000
000000
0003F0
0007E0
0007E0
0007E0
000FC0
000FC0
000FC0
001F80
001F80
001F80
003F00
003F00
003F00
007E00
007E00
007E00
00FC00
00FC00
00FC00
01F800
01F800
01F800
03F000
000000
000000
000000
000000
000000
000000
000000
000000
ENDCHAR
STARTCHAR C210
ENCODING -1
SWIDTH 342 0
DWIDTH 12 0
BBX 23 35 -1 -8
BITMAP
000000
000000
000000
000000
0003F0
0007E0
0007E0
0007E0
000FC0
000FC0
000FC0
001F80
001F80
001F80
003F00
003F00
003F00
007E00
007E00
007E00
00FC00
00FC00
00FC00
01F800
01F800
01F800
03F000
000000
000000
000000
000000
000000
000000
000000
000000
ENDCHAR
STARTCHAR C211
ENCODING -1
SWIDTH 342 0
DWIDTH 12 0
BBX 23 35 -1 -8
BITMAP
000000
000000
000000
000000
0003F0
0007E0
0007E0
0007E0
000FC0
000FC0
000FC0
001F80
001F80
001F80
003F00
003F00
003F00
007E00
007E00
007E00
00FC00
00FC00
00FC00
01F800
01F800
01F800
03F000
000000
000000
000000
000000
000000
000000
000000
000000
ENDCHAR
STARTCHAR C212
ENCODING -1
SWIDTH 342 0
DWIDTH 12 0
BBX 23 35 -1 -8
BITMAP
000000
000000
000000
000000
0003F0
0007E0
0007E0
0007E0
000FC0
000FC0
000FC0
001F80
001F80
001F80
003F00
003F00
003F00
007E00
007E00
007E00
00FC00
00FC00
00FC00
01F800
01F800
01F800
03F000
000000
000000
000000
000000
000000
000000
000000
000000
ENDCHAR
STARTCHAR C213
ENCODING -1
SWIDTH 342 0
DWIDTH 12 0
BBX 23 35 -1 -8
BITMAP
000000
000000
000000
000000
0003F0
0007E0
0007E0
0007E0
000FC0
000FC0
000FC0
001F80
001F80
001F80
003F00
003F00
003F00
007E00
007E00
007E00
00FC00
00FC00
00FC00
01F800
01F800
01F800
03F000
000000
000000
000000
000000
000000
000000
000000
000000
ENDCHAR
STARTCHAR C214
ENCODING -1
SWIDTH 342 0
DWIDTH 12 0
BBX 23 35 -1 -8
BITMAP
000000
000000
000000
000000
0003F0
0007E0
0007E0
0007E0
000FC0
000FC0
000FC0
001F80
001F80
001F80
003F00
003F00
003F00
007E00
007E00
007E00
00FC00
00FC00
00FC00
01F800
01F800
01F800
03F000
000000
000000
000000
000000
000000
000000
000000
000000
ENDCHAR
STARTCHAR C215
ENCODING -1
SWIDTH 342 0
DWIDTH 12 0
BBX 23 35 -1 -8
BITMAP
000000
000000
000000
000000
0003F0
0007E0
0007E0
0007E0
000FC0
000FC0
000FC0
001F80
001F80
001F80
003F00
003F00
003F00
007E00
007E00
007E00
00FC00
00FC00
00FC00
01F800
01F800
01F800
03F000
000000
000000
000000
000000
000000
000000
000000
000000
ENDCHAR
STARTCHAR C216
ENCODING -1
SWIDTH 342 0
DWIDTH 12 0
BBX 23 35 -1 -8
BITMAP
000000
000000
000000
000000
0003F0
0007E0
0007E0
0007E0
000FC0
000FC0
000FC0
001F80
001F80
001F80
003F00
003F00
003F00
007E00
007E00
007E00
00FC00
00FC00
00FC00
01F800
01F800
01F800
03F000
000000
000000
000000
000000
000000
000000
000000
000000
ENDCHAR
STARTCHAR C217
ENCODING -1
SWIDTH 342 0
DWIDTH 12 0
BBX 23 35 -1 -8
BITMAP
000000
000000
000000
000000
0003F0
0007E0
0007E0
0007E0
000FC0
000FC0
000FC0
001F80
001F80
001F80
003F00
003F00
003F00
007E00
007E00
007E00
00FC00
00FC00
00FC00
01F800
01F800
01F800
03F000
000000
000000
000000
000000
000000
000000
000000
000000
ENDCHAR
STARTCHAR C220
ENCODING -1
SWIDTH 342 0
DWIDTH 12 0
BBX 23 35 -1 -8
BITMAP
000000
000000
000000
000000
0003F0
0007E0
0007E0
0007E0
000FC0
000FC0
000FC0
001F80
001F80
001F80
003F00
003F00
003F00
007E00
007E00
007E00
00FC00
00FC00
00FC00
01F800
01F800
01F800
03F000
000000
000000
000000
000000
000000
000000
000000
000000
ENDCHAR
STARTCHAR C221
ENCODING -1
SWIDTH 257 0
DWIDTH 9 0
BBX 20 35 -1 -8
BITMAP
000000
000000
000000
000000
0001C0
000600
000E00
000F00
001F00
000E00
000000
000000
000000
000000
000000
000000
000000
000000
000000
000000
000000
000000
000000
000000
000000
000000
000000
000000
000000
000000
000000
000000
000000
000000
000000
ENDCHAR
STARTCHAR C222
ENCODING -1
SWIDTH 257 0
DWIDTH 9 0
BBX 20 35 -1 -8
BITMAP
000000
000000
000000
000000
000380
000F80
000780
000380
000600
001C00
000000
000000
000000
000000
000000
000000
000000
000000
000000
000000
000000
000000
000000
000000
000000
000000
000000
000000
000000
000000
000000
000000
000000
000000
000000
ENDCHAR
STARTCHAR C223
ENCODING -1
SWIDTH 342 0
DWIDTH 12 0
BBX 23 35 -1 -8
BITMAP
000000
000000
000000
000000
0003F0
0007E0
0007E0
0007E0
000FC0
000FC0
000FC0
001F80
001F80
001F80
003F00
003F00
003F00
007E00
007E00
007E00
00FC00
00FC00
00FC00
01F800
01F800
01F800
03F000
000000
000000
000000
000000
000000
000000
000000
000000
ENDCHAR
STARTCHAR C224
ENCODING -1
SWIDTH 342 0
DWIDTH 12 0
BBX 23 35 -1 -8
BITMAP
000000
000000
000000
000000
0003F0
0007E0
0007E0
0007E0
000FC0
000FC0
000FC0
001F80
001F80
001F80
003F00
003F00
003F00
007E00
007E00
007E00
00FC00
00FC00
00FC00
01F800
01F800
01F800
03F000
000000
000000
000000
000000
000000
000000
000000
000000
ENDCHAR
STARTCHAR C225
ENCODING -1
SWIDTH 342 0
DWIDTH 12 0
BBX 23 35 -1 -8
BITMAP
000000
000000
000000
000000
0003F0
0007E0
0007E0
0007E0
000FC0
000FC0
000FC0
001F80
001F80
001F80
003F00
003F00
003F00
007E00
007E00
007E00
00FC00
00FC00
00FC00
01F800
01F800
01F800
03F000
000000
000000
000000
000000
000000
000000
000000
000000
ENDCHAR
STARTCHAR C226
ENCODING -1
SWIDTH 342 0
DWIDTH 12 0
BBX 23 35 -1 -8
BITMAP
000000
000000
000000
000000
0003F0
0007E0
0007E0
0007E0
000FC0
000FC0
000FC0
001F80
001F80
001F80
003F00
003F00
003F00
007E00
007E00
007E00
00FC00
00FC00
00FC00
01F800
01F800
01F800
03F000
000000
000000
000000
000000
000000
000000
000000
000000
ENDCHAR
STARTCHAR C227
ENCODING -1
SWIDTH 342 0
DWIDTH 12 0
BBX 23 35 -1 -8
BITMAP
000000
000000
000000
000000
0003F0
0007E0
0007E0
0007E0
000FC0
000FC0
000FC0
001F80
001F80
001F80
003F00
003F00
003F00
007E00
007E00
007E00
00FC00
00FC00
00FC00
01F800
01F800
01F800
03F000
000000
000000
000000
000000
000000
000000
000000
000000
ENDCHAR
STARTCHAR C230
ENCODING -1
SWIDTH 342 0
DWIDTH 12 0
BBX 23 35 -1 -8
BITMAP
000000
000000
000000
000000
0003F0
0007E0
0007E0
0007E0
000FC0
000FC0
000FC0
001F80
001F80
001F80
003F00
003F00
003F00
007E00
007E00
007E00
00FC00
00FC00
00FC00
01F800
01F800
01F800
03F000
000000
000000
000000
000000
000000
000000
000000
000000
ENDCHAR
STARTCHAR C231
ENCODING -1
SWIDTH 342 0
DWIDTH 12 0
BBX 23 35 -1 -8
BITMAP
000000
000000
000000
000000
0003F0
0007E0
0007E0
0007E0
000FC0
000FC0
000FC0
001F80
001F80
001F80
003F00
003F00
003F00
007E00
007E00
007E00
00FC00
00FC00
00FC00
01F800
01F800
01F800
03F000
000000
000000
000000
000000
000000
000000
000000
000000
ENDCHAR
STARTCHAR C232
ENCODING -1
SWIDTH 342 0
DWIDTH 12 0
BBX 23 35 -1 -8
BITMAP
000000
000000
000000
000000
0003F0
0007E0
0007E0
0007E0
000FC0
000FC0
000FC0
001F80
001F80
001F80
003F00
003F00
003F00
007E00
007E00
007E00
00FC00
00FC00
00FC00
01F800
01F800
01F800
03F000
000000
000000
000000
000000
000000
000000
000000
000000
ENDCHAR
STARTCHAR C233
ENCODING -1
SWIDTH 342 0
DWIDTH 12 0
BBX 23 35 -1 -8
BITMAP
000000
000000
000000
000000
0003F0
0007E0
0007E0
0007E0
000FC0
000FC0
000FC0
001F80
001F80
001F80
003F00
003F00
003F00
007E00
007E00
007E00
00FC00
00FC00
00FC00
01F800
01F800
01F800
03F000
000000
000000
000000
000000
000000
000000
000000
000000
ENDCHAR
STARTCHAR C234
ENCODING 176
SWIDTH 342 0
DWIDTH 12 0
BBX 23 35 -1 -8
BITMAP
000000
000000
000000
000000
0003F0
0007E0
0007E0
0007E0
000FC0
000FC0
000FC0
001F80
001F80
001F80
003F00
003F00
003F00
007E00
007E00
007E00
00FC00
00FC00
00FC00
01F800
01F800
01F800
03F000
000000
000000
000000
000000
000000
000000
000000
000000
ENDCHAR
STARTCHAR C235
ENCODING 178
SWIDTH 342 0
DWIDTH 12 0
BBX 23 35 -1 -8
BITMAP
000000
000000
000000
000000
0003F0
0007E0
0007E0
0007E0
000FC0
000FC0
000FC0
001F80
001F80
001F80
003F00
003F00
003F00
007E00
007E00
007E00
00FC00
00FC00
00FC00
01F800
01F800
01F800
03F000
000000
000000
000000
000000
000000
000000
000000
000000
ENDCHAR
STARTCHAR C236
ENCODING -1
SWIDTH 342 0
DWIDTH 12 0
BBX 23 35 -1 -8
BITMAP
000000
000000
000000
000000
0003F0
0007E0
0007E0
0007E0
000FC0
000FC0
000FC0
001F80
001F80
001F80
003F00
003F00
003F00
007E00
007E00
007E00
00FC00
00FC00
00FC00
01F800
01F800
01F800
03F000
000000
000000
000000
000000
000000
000000
000000
000000
ENDCHAR
STARTCHAR C237
ENCODING -1
SWIDTH 342 0
DWIDTH 12 0
BBX 23 35 -1 -8
BITMAP
000000
000000
000000
000000
0003F0
0007E0
0007E0
0007E0
000FC0
000FC0
000FC0
001F80
001F80
001F80
003F00
003F00
003F00
007E00
007E00
007E00
00FC00
00FC00
00FC00
01F800
01F800
01F800
03F000
000000
000000
000000
000000
000000
000000
000000
000000
ENDCHAR
STARTCHAR C240
ENCODING 160
SWIDTH 257 0
DWIDTH 9 0
BBX 20 35 -1 -8
BITMAP
000000
000000
000000
000000
000000
000000
000000
000000
000000
000000
000000
000000
000000
000000
000000
000000
000000
000000
000000
000000
000000
000000
000000
000000
000000
000000
000000
000000
000000
000000
000000
000000
000000
000000
000000
ENDCHAR
STARTCHAR exclamdown
ENCODING 161
SWIDTH 600 0
DWIDTH 21 0
BBX 32 35 -1 -8
BITMAP
00000000
0000E0E0
0003E3E0
0001C1C0
00000000
001FFFF0
0007E070
0003C030
00078060
00078000
00078000
000F0000
000F0300
000F0300
001E0E00
001FFE00
001E0E00
003C0C00
003C0C00
003C0000
00780000
00780000
00780000
00F00300
00F00700
01F81E00
0FFFFC00
00000000
00000000
00000000
00000000
00000000
00000000
00000000
0E0E0000
ENDCHAR
STARTCHAR cent
ENCODING 162
SWIDTH 485 0
DWIDTH 17 0
BBX 28 35 -1 -8
BITMAP
00000000
00000000
00000000
00000000
00000000
00000000
00000000
00000000
00000000
00000700
00000700
00001C00
0001FC00
0007FC00
001CFC00
0038FC00
0039FC00
00F3B000
00F70000
00F70000
01FC0000
01FC0000
01F80000
01F06000
01F0C000
00FF8000
03FE0000
03800000
00000000
00000000
00000000
00000000
00000000
00000000
00000000
ENDCHAR
STARTCHAR sterling
ENCODING 163
SWIDTH 485 0
DWIDTH 17 0
BBX 28 35 -1 -8
BITMAP
00000000
00000000
00000000
00000000
00007E00
0003CF00
00078F80
00078700
001E0000
001E0000
001E0000
003C0000
001C0000
00FFC000
01FF8000
003C0000
003C0000
00780000
00780000
00780000
00F00000
01F00C00
03F81C00
0FFCF000
0FFFF000
0FDFE000
0F0F0000
00000000
00000000
00000000
00000000
00000000
00000000
00000000
00000000
ENDCHAR
STARTCHAR currency
ENCODING 164
SWIDTH 485 0
DWIDTH 17 0
BBX 28 35 -1 -8
BITMAP
00000000
00000000
00000000
00000000
00067CC0
001FFFC0
000FDF80
00070700
001E0F00
001C0700
001C0700
00380E00
003C1E00
001C1C00
007EFC00
00FFFE00
0067CC00
00000000
00000000
00000000
00000000
00000000
00000000
00000000
00000000
00000000
00000000
00000000
00000000
00000000
00000000
00000000
00000000
00000000
00000000
ENDCHAR
STARTCHAR yen
ENCODING 165
SWIDTH 514 0
DWIDTH 18 0
BBX 29 35 -1 -8
BITMAP
00000000
00000000
00000000
00000000
00000000
003FC3F0
000F00E0
000780C0
000F0300
00078300
00078600
00079800
00079800
0003F000
0007E000
007FFE00
0003C000
00078000
00FFFC00
00078000
000F0000
000F0000
000F0000
001E0000
001E0000
003F0000
00FF0000
00000000
00000000
00000000
00000000
00000000
00000000
00000000
00000000
ENDCHAR
STARTCHAR brokenbar
ENCODING 166
SWIDTH 285 0
DWIDTH 10 0
BBX 21 35 -1 -8
BITMAP
000000
000000
000000
000000
0003C0
000780
000780
000780
000F00
000F00
000F00
001E00
001E00
000000
000000
000000
000000
000000
007800
007800
00F000
00F000
00F000
01E000
01E000
01E000
03C000
000000
000000
000000
000000
000000
000000
000000
000000
ENDCHAR
STARTCHAR section
ENCODING 167
SWIDTH 485 0
DWIDTH 17 0
BBX 28 35 -1 -8
BITMAP
00000000
00000000
00000000
00000000
00007E00
0003CF00
00038F00
00070600
000E0000
000F0000
00078000
0007C000
000FE000
001DF800
0030F800
00707800
00783C00
00F07800
00783800
007C3000
007EE000
001FC000
000F8000
00078000
0003C000
0001C000
01838000
03C70000
03CF0000
01F80000
00000000
00000000
00000000
00000000
00000000
ENDCHAR
STARTCHAR dieresis
ENCODING 168
SWIDTH 342 0
DWIDTH 12 0
BBX 23 35 -1 -8
BITMAP
000000
000000
000000
000000
000618
001E78
001E78
000C30
000000
000000
000000
000000
000000
000000
000000
000000
000000
000000
000000
000000
000000
000000
000000
000000
000000
000000
000000
000000
000000
000000
000000
000000
000000
000000
000000
ENDCHAR
STARTCHAR copyright
ENCODING 191
SWIDTH 714 0
DWIDTH 25 0
BBX 36 35 -1 -8
BITMAP
0000000000
0000000000
0000000000
0000000000
0000000000
00001FC000
00007FF000
0001F07C00
0007803C00
000F001E00
000E000E00
00383FCE00
0038FBCE00
0078E1CF00
00E3C18E00
00E3800E00
00E3800E00
01C7801C00
01E3833C00
00E3EE3800
01C1F87000
00E000E000
00F001E000
00F0078000
007C1F0000
001FFC0000
000FE00000
0000000000
0000000000
0000000000
0000000000
0000000000
0000000000
0000000000
0000000000
ENDCHAR
STARTCHAR ordfeminine
ENCODING 170
SWIDTH 285 0
DWIDTH 10 0
BBX 21 35 -1 -8
BITMAP
000000
000000
000000
000000
0007E0
001DE0
001CE0
0001E0
000FC0
003DC0
0079C0
00F780
007FC0
000000
01FF80
01FF80
000000
000000
000000
000000
000000
000000
000000
000000
000000
000000
000000
000000
000000
000000
000000
000000
000000
000000
000000
ENDCHAR
STARTCHAR guillemotleft
ENCODING 171
SWIDTH 485 0
DWIDTH 17 0
BBX 28 35 -1 -8
BITMAP
00000000
00000000
00000000
00000000
00000000
00000000
00000000
00000000
00000000
00006180
0000E380
0003CF00
00079E00
000F3C00
003CF000
0079E000
003CF000
003CF000
001E7800
000F3C00
000E3800
00061800
00000000
00000000
00000000
00000000
00000000
00000000
00000000
00000000
00000000
00000000
00000000
00000000
00000000
ENDCHAR
STARTCHAR logicalnot
ENCODING 172
SWIDTH 542 0
DWIDTH 19 0
BBX 30 35 -1 -8
BITMAP
00000000
00000000
00000000
00000000
00000000
00000000
00000000
00000000
00000000
00000000
00000000
00000000
00000000
00000000
00000000
00000000
00000000
00FFFE00
00FFFE00
00000E00
00001C00
00001C00
00000000
00000000
00000000
00000000
00000000
00000000
00000000
00000000
00000000
00000000
00000000
00000000
00000000
ENDCHAR
STARTCHAR hyphen
ENCODING 173
SWIDTH 314 0
DWIDTH 11 0
BBX 22 35 -1 -8
BITMAP
000000
000000
000000
000000
000000
000000
000000
000000
000000
000000
000000
000000
000000
000000
000000
000000
00FF80
01FF00
000000
000000
000000
000000
000000
000000
000000
000000
000000
000000
000000
000000
000000
000000
000000
000000
000000
ENDCHAR
STARTCHAR registered
ENCODING 174
SWIDTH 714 0
DWIDTH 25 0
BBX 36 35 -1 -8
BITMAP
0000000000
0000000000
0000000000
0000000000
0000000000
00001FC000
00007FF000
0001F07C00
0007803C00
000F001E00
000E000E00
0039FF0E00
0038E78E00
0078E38F00
00E1C70E00
00E1CE0E00
00E1FC0E00
01C3F81C00
01E3BC3C00
00E39E3800
01CF9F7000
00E000E000
00F001E000
00F0078000
007C1F0000
001FFC0000
000FE00000
0000000000
0000000000
0000000000
0000000000
0000000000
0000000000
0000000000
0000000000
ENDCHAR
STARTCHAR macron
ENCODING 175
SWIDTH 485 0
DWIDTH 17 0
BBX 28 35 -1 -8
BITMAP
00000000
00000000
00000000
001FFFF0
001FFFF0
00000000
00000000
00000000
00000000
00000000
00000000
00000000
00000000
00000000
00000000
00000000
00000000
00000000
00000000
00000000
00000000
00000000
00000000
00000000
00000000
00000000
00000000
00000000
00000000
00000000
00000000
00000000
00000000
00000000
00000000
ENDCHAR
STARTCHAR degree
ENCODING 156
SWIDTH 342 0
DWIDTH 12 0
BBX 23 35 -1 -8
BITMAP
000000
000000
000000
000000
0001F0
0007F0
000F78
000E38
001C70
001EF0
000FE0
000F80
000000
000000
000000
000000
000000
000000
000000
000000
000000
000000
000000
000000
000000
000000
000000
000000
000000
000000
000000
000000
000000
000000
000000
ENDCHAR
STARTCHAR plusminus
ENCODING 177
SWIDTH 542 0
DWIDTH 19 0
BBX 30 35 -1 -8
BITMAP
00000000
00000000
00000000
00000000
00000000
00003800
00003800
00003800
00007000
00007000
00007000
0000E000
007FFFC0
007FFFC0
0001C000
0001C000
0001C000
00038000
00038000
00038000
00070000
00000000
00000000
00000000
00000000
07FFFC00
0FFFF800
00000000
00000000
00000000
00000000
00000000
00000000
00000000
00000000
ENDCHAR
STARTCHAR twosuperior
ENCODING 157
SWIDTH 257 0
DWIDTH 9 0
BBX 20 35 -1 -8
BITMAP
000000
000000
000000
000000
000FC0
0021C0
0001C0
0001C0
000700
000E00
001C00
007180
00FF00
00FE00
000000
000000
000000
000000
000000
000000
000000
000000
000000
000000
000000
000000
000000
000000
000000
000000
000000
000000
000000
000000
000000
ENDCHAR
STARTCHAR threesuperior
ENCODING 179
SWIDTH 257 0
DWIDTH 9 0
BBX 20 35 -1 -8
BITMAP
000000
000000
000000
000000
0007E0
001DE0
0018E0
0001C0
000F80
0003C0
0001C0
006380
007780
003F00
000000
000000
000000
000000
000000
000000
000000
000000
000000
000000
000000
000000
000000
000000
000000
000000
000000
000000
000000
000000
000000
ENDCHAR
STARTCHAR acute
ENCODING 180
SWIDTH 342 0
DWIDTH 12 0
BBX 23 35 -1 -8
BITMAP
000000
000000
000000
000000
000070
0001E0
000380
000600
000000
000000
000000
000000
000000
000000
000000
000000
000000
000000
000000
000000
000000
000000
000000
000000
000000
000000
000000
000000
000000
000000
000000
000000
000000
000000
000000
ENDCHAR
STARTCHAR mu
ENCODING 181
SWIDTH 485 0
DWIDTH 17 0
BBX 28 35 -1 -8
BITMAP
00000000
00000000
00000000
00000000
00000000
00000000
00000000
00000000
00000000
00000000
00000000
00000000
007E7E00
001E1E00
003C3C00
003C3C00
003C3C00
00787800
00787800
00787800
00F0F000
00F0F000
00F0F000
01E1E000
01F3F800
01FFE000
03FB0000
03C00000
03C00000
07800000
07800000
07800000
0F000000
0F000000
00000000
ENDCHAR
STARTCHAR paragraph
ENCODING 182
SWIDTH 457 0
DWIDTH 16 0
BBX 27 35 -1 -8
BITMAP
00000000
00000000
00000000
00000000
00000000
00000000
00000000
0003FF80
001FCE00
001FCE00
003FCE00
007F9C00
007F9C00
007F9C00
007F3800
007F3800
001F3800
000E7000
000E7000
000E7000
001CE000
001CE000
001CE000
0039C000
0039C000
0039C000
00738000
00738000
00738000
00000000
00000000
00000000
00000000
00000000
00000000
ENDCHAR
STARTCHAR periodcentered
ENCODING 183
SWIDTH 257 0
DWIDTH 9 0
BBX 20 35 -1 -8
BITMAP
000000
000000
000000
000000
000000
000000
000000
000000
000000
000000
000000
000000
001C00
003E00
007C00
003800
000000
000000
000000
000000
000000
000000
000000
000000
000000
000000
000000
000000
000000
000000
000000
000000
000000
000000
000000
ENDCHAR
STARTCHAR cedilla
ENCODING 184
SWIDTH 342 0
DWIDTH 12 0
BBX 23 35 -1 -8
BITMAP
000000
000000
000000
000000
000000
000000
000000
000000
000000
000000
000000
000000
000000
000000
000000
000000
000000
000000
000000
000000
000000
000000
000000
000000
000000
000000
000000
00E000
00E000
038000
03E000
007000
00E000
1FC000
000000
ENDCHAR
STARTCHAR onesuperior
ENCODING 185
SWIDTH 257 0
DWIDTH 9 0
BBX 20 35 -1 -8
BITMAP
000000
000000
000000
000000
000380
001F00
000700
000700
000E00
000E00
000E00
001C00
003E00
007F00
000000
000000
000000
000000
000000
000000
000000
000000
000000
000000
000000
000000
000000
000000
000000
000000
000000
000000
000000
000000
000000
ENDCHAR
STARTCHAR ordmasculine
ENCODING 186
SWIDTH 285 0
DWIDTH 10 0
BBX 21 35 -1 -8
BITMAP
000000
000000
000000
000000
0007E0
001CE0
003870
003870
0070E0
0070E0
0070E0
007380
003F00
000000
01FF80
01FF80
000000
000000
000000
000000
000000
000000
000000
000000
000000
000000
000000
000000
000000
000000
000000
000000
000000
000000
000000
ENDCHAR
STARTCHAR guillemotright
ENCODING 187
SWIDTH 485 0
DWIDTH 17 0
BBX 28 35 -1 -8
BITMAP
00000000
00000000
00000000
00000000
00000000
00000000
00000000
00000000
00000000
0030C000
0038E000
0079E000
003CF000
001E7800
001E7800
000F3C00
001E7800
0079E000
00F3C000
01E78000
038E0000
030C0000
00000000
00000000
00000000
00000000
00000000
00000000
00000000
00000000
00000000
00000000
00000000
00000000
00000000
ENDCHAR
STARTCHAR onequarter
ENCODING 188
SWIDTH 657 0
DWIDTH 23 0
BBX 34 35 -1 -8
BITMAP
0000000000
0000000000
0000000000
0000000000
0000000E00
0003803800
0007803800
000F807000
000701C000
000701C000
0007038000
000E0E0000
000E0E0000
001F1C0000
007F700000
0000700000
0000E00000
0003838000
0003878000
00070F8000
001C370000
001C670000
0038FF8000
00E1FF0000
00E00E0000
01C00E0000
03801C0000
0000000000
0000000000
0000000000
0000000000
0000000000
0000000000
0000000000
0000000000
ENDCHAR
STARTCHAR onehalf
ENCODING 189
SWIDTH 657 0
DWIDTH 23 0
BBX 34 35 -1 -8
BITMAP
0000000000
0000000000
0000000000
0000000000
0000001C00
0007003800
000F007000
001F00E000
000E01C000
000E038000
000E070000
001C0E0000
001C1C0000
003E380000
00FE700000
0000E00000
0001C00000
00039F8000
000731C000
000E01C000
001C038000
0038070000
00700E0000
00E0380000
01C0718000
01C0FF0000
0701FC0000
0000000000
0000000000
0000000000
0000000000
0000000000
0000000000
0000000000
0000000000
ENDCHAR
STARTCHAR threequarters
ENCODING 190
SWIDTH 657 0
DWIDTH 23 0
BBX 34 35 -1 -8
BITMAP
0000000000
0000000000
0000000000
0000000000
0007E00E00
001DE03800
0018E03800
0001E07000
000F81C000
000381C000
0001C38000
00038E0000
00638E0000
00779C0000
007E700000
0000700000
0000E00000
0003838000
0003878000
00070F8000
001C370000
001C670000
0038FF8000
00E1FE0000
00E00E0000
01C00E0000
03801C0000
0000000000
0000000000
0000000000
0000000000
0000000000
0000000000
0000000000
0000000000
ENDCHAR
STARTCHAR questiondown
ENCODING 169
SWIDTH 428 0
DWIDTH 15 0
BBX 26 35 -1 -8
BITMAP
00000000
00000000
00000000
00000000
00000000
00000000
00000000
00061800
001E7800
001E7800
000C3000
00000000
00078000
001FE000
0079E000
0070E000
00F0F000
01E1E000
01FFE000
01E00000
03C00000
03C00000
03E00000
03E1C000
03FF8000
01FF0000
00F80000
00000000
00000000
00000000
00000000
00000000
00000000
00000000
00000000
ENDCHAR
STARTCHAR cyr-A
ENCODING 225
SWIDTH 657 0
DWIDTH 23 0
BBX 34 35 -1 -8
BITMAP
0000000000
0000000000
0000000000
0000000000
0000000000
00000C0000
00000C0000
00000E0000
00003C0000
00003E0000
00007E0000
0000FC0000
0000FE0000
0001FE0000
0003BE0000
00073E0000
00071F0000
000E3E0000
001C3E0000
001C1F0000
007FFE0000
00701F0000
00701F0000
01C01F0000
01C01F0000
03C03F8000
1FE1FFC000
0000000000
0000000000
0000000000
0000000000
0000000000
0000000000
0000000000
0000000000
ENDCHAR
STARTCHAR cyr-Be
ENCODING 226
SWIDTH 628 0
DWIDTH 22 0
BBX 33 35 -1 -8
BITMAP
0000000000
0000000000
0000000000
0000000000
0000000000
001FFFF800
0007E03800
0003C01800
0007803000
0007800000
0007800000
000F000000
000F000000
000F000000
001FFF0000
001F0F8000
001E03C000
003C07C000
003C03C000
003C03E000
007807C000
007807C000
007807C000
00F01F0000
00F01F0000
01F87E0000
0FFFF00000
0000000000
0000000000
0000000000
0000000000
0000000000
0000000000
0000000000
0000000000
ENDCHAR
STARTCHAR cyr-Ve
ENCODING 247
SWIDTH 628 0
DWIDTH 22 0
BBX 33 35 -1 -8
BITMAP
0000000000
0000000000
0000000000
0000000000
0000000000
001FFFC000
0007E1F000
0003C0F800
000780F000
000780F800
000780F800
000F01F000
000F01E000
000F03E000
001E0F8000
001FFF0000
001E0F8000
003C078000
003C07C000
003C03C000
007807C000
007807C000
007807C000
00F01F0000
00F01F0000
01F87E0000
0FFFF00000
0000000000
0000000000
0000000000
0000000000
0000000000
0000000000
0000000000
0000000000
ENDCHAR
STARTCHAR cyr-Ghe
ENCODING 231
SWIDTH 571 0
DWIDTH 20 0
BBX 31 35 -1 -8
BITMAP
00000000
00000000
00000000
00000000
00000000
001FFFF8
0007E038
0003C018
00078030
00078000
00078000
000F0000
000F0000
000F0000
001E0000
001E0000
001E0000
003C0000
003C0000
003C0000
00780000
00780000
00780000
00F00000
00F00000
01F80000
0FFE0000
00000000
00000000
00000000
00000000
00000000
00000000
00000000
00000000
ENDCHAR
STARTCHAR cyr-De
ENCODING 228
SWIDTH 714 0
DWIDTH 25 0
BBX 36 35 -1 -8
BITMAP
0000000000
0000000000
0000000000
0000000000
0000000000
0007FFFF00
0003E07E00
0001C03E00
0003807C00
0003807C00
0003807C00
000700F800
000700F800
000700F800
000E01F000
000E01F000
000E01F000
001C03E000
001C03E000
001C03E000
003807C000
003807C000
003807C000
00700F8000
00E00F8000
01C01FC000
0FFFFFE000
0F0001E000
0E0000E000
180000C000
180000C000
0000000000
0000000000
0000000000
0000000000
ENDCHAR
STARTCHAR cyr-Ie
ENCODING 229
SWIDTH 600 0
DWIDTH 21 0
BBX 32 35 -1 -8
BITMAP
00000000
00000000
00000000
00000000
00000000
001FFFF0
0007E070
0003C030
00078060
00078000
00078000
000F0000
000F0300
000F0300
001E0E00
001FFE00
001E0E00
003C0C00
003C0C00
003C0000
00780000
00780000
00780000
00F00300
00F00700
01F81E00
0FFFFC00
00000000
00000000
00000000
00000000
00000000
00000000
00000000
00000000
ENDCHAR
STARTCHAR cyr-Zhe
ENCODING 246
SWIDTH 971 0
DWIDTH 34 0
BBX 45 35 -1 -8
BITMAP
000000000000
000000000000
000000000000
000000000000
000000000000
000F83FF07C0
001FC0FC0FE0
001FE0781FE0
001CE0F07380
000070F0E000
000038F1C000
000039E70000
00001DEE0000
00001FFE0000
00007FFE0000
0000FBDF0000
0000F3CF0000
0003C78F0000
000787878000
000787878000
001E0F078000
003C0F03C000
003C0F03C000
00F01E03C000
01E01E01E000
03F03F03F000
1FF9FF9FF800
000000000000
000000000000
000000000000
000000000000
000000000000
000000000000
000000000000
000000000000
ENDCHAR
STARTCHAR cyr-Ze
ENCODING 250
SWIDTH 628 0
DWIDTH 22 0
BBX 33 35 -1 -8
BITMAP
0000000000
0000000000
0000000000
0000000000
0000000000
00067FC000
0007E1F000
000700F800
000C00F800
000C00F800
000000F800
000001F000
000301E000
000303E000
00070F8000
0007FF0000
00070F8000
000C078000
000C07C000
000003C000
000007C000
000007C000
00C007C000
01800F8000
01C01F0000
01F87E0000
033FF00000
0000000000
0000000000
0000000000
0000000000
0000000000
0000000000
0000000000
0000000000
ENDCHAR
STARTCHAR cyr-I
ENCODING 233
SWIDTH 714 0
DWIDTH 25 0
BBX 36 35 -1 -8
BITMAP
0000000000
0000000000
0000000000
0000000000
0000000000
001FF81FC0
0007E03F00
0003C03E00
000780FC00
000780FC00
000781FC00
000F037800
000F077800
000F067800
001E1CF000
001E18F000
001E38F000
003C61E000
003CE1E000
003CC1E000
007B83C000
007B03C000
007F03C000
00FC078000
00FC078000
01F80FC000
0FF07FE000
0000000000
0000000000
0000000000
0000000000
0000000000
0000000000
0000000000
0000000000
ENDCHAR
STARTCHAR cyr-I-short
ENCODING 234
SWIDTH 714 0
DWIDTH 25 0
BBX 36 35 -1 -8
BITMAP
0000000000
0000000000
0000061800
000007F800
000001E000
001FF81FC0
0007E03F00
0003C03E00
000780FC00
000780FC00
000781FC00
000F037800
000F077800
000F067800
001E1CF000
001E18F000
001E38F000
003C61E000
003CE1E000
003CC1E000
007B83C000
007B03C000
007F03C000
00FC078000
00FC078000
01F80FC000
0FF07FE000
0000000000
0000000000
0000000000
0000000000
0000000000
0000000000
0000000000
0000000000
ENDCHAR
STARTCHAR cyr-Ka
ENCODING 235
SWIDTH 685 0
DWIDTH 24 0
BBX 35 35 -1 -8
BITMAP
0000000000
0000000000
0000000000
0000000000
0000000000
001FF81F00
0007E03F80
0003C07F80
000781CE00
0007838000
0007870000
000F1C0000
000F380000
000F700000
001FF00000
001FF80000
001F780000
003C780000
003C3C0000
003C3C0000
00783C0000
00781E0000
00781E0000
00F01E0000
00F00F0000
01F81F8000
0FFCFFC000
0000000000
0000000000
0000000000
0000000000
0000000000
0000000000
0000000000
0000000000
ENDCHAR
STARTCHAR cyr-El
ENCODING 236
SWIDTH 771 0
DWIDTH 27 0
BBX 38 35 -1 -8
BITMAP
0000000000
0000000000
0000000000
0000000000
0000000000
0001FFFFC0
0000F81F80
0000700F80
0000E01F00
0000E01F00
0000E01F00
0001C03E00
0001C03E00
0001C03E00
0003807C00
0003807C00
0003807C00
000700F800
000700F800
000700F800
000E01F000
000E01F000
000E01F000
039C03E000
07DC03E000
07F807F000
07E03FF800
0000000000
0000000000
0000000000
0000000000
0000000000
0000000000
0000000000
0000000000
ENDCHAR
STARTCHAR cyr-Em
ENCODING 237
SWIDTH 828 0
DWIDTH 29 0
BBX 40 35 -1 -8
BITMAP
0000000000
0000000000
0000000000
0000000000
0000000000
001FE001FC
0007E001F0
0003E003E0
0007E007C0
0007E007C0
0007F00FC0
000DE01F80
000DE03780
000DF03780
0019E06F00
0019F0CF00
0018F0CF00
0031E31E00
0031F31E00
0030F31E00
0061FC3C00
0060FC3C00
0060F83C00
00C0F07800
00C0F07800
01E060FC00
0FF0C7FE00
0000000000
0000000000
0000000000
0000000000
0000000000
0000000000
0000000000
0000000000
ENDCHAR
STARTCHAR cyr-En
ENCODING 238
SWIDTH 685 0
DWIDTH 24 0
BBX 35 35 -1 -8
BITMAP
0000000000
0000000000
0000000000
0000000000
0000000000
001FF9FF80
0007E07E00
0003C03C00
0007807800
0007807800
0007807800
000F00F000
000F00F000
000F00F000
001E01E000
001FFFE000
001E01E000
003C03C000
003C03C000
003C03C000
0078078000
0078078000
0078078000
00F00F0000
00F00F0000
01F81F8000
0FFCFFC000
0000000000
0000000000
0000000000
0000000000
0000000000
0000000000
0000000000
0000000000
ENDCHAR
STARTCHAR cyr-O
ENCODING 239
SWIDTH 628 0
DWIDTH 22 0
BBX 33 35 -1 -8
BITMAP
0000000000
0000000000
0000000000
0000000000
0000000000
00007F8000
0001F3E000
0003C0F000
000F00F000
000F00F000
001E007800
003C00F000
007C00F800
007C00F800
00F801F000
00F801F000
00F801F000
01F003E000
01F003E000
01F003E000
01E0078000
01E0078000
00F00F0000
01E01E0000
00F03C0000
007CF80000
003FC00000
0000000000
0000000000
0000000000
0000000000
0000000000
0000000000
0000000000
0000000000
ENDCHAR
STARTCHAR cyr-Pe
ENCODING 240
SWIDTH 685 0
DWIDTH 24 0
BBX 35 35 -1 -8
BITMAP
0000000000
0000000000
0000000000
0000000000
0000000000
001FFFFF80
0007E07E00
0003C03C00
0007807800
0007807800
0007807800
000F00F000
000F00F000
000F00F000
001E01E000
001E01E000
001E01E000
003C03C000
003C03C000
003C03C000
0078078000
0078078000
0078078000
00F00F0000
00F00F0000
01F81F8000
0FFCFFC000
0000000000
0000000000
0000000000
0000000000
0000000000
0000000000
0000000000
0000000000
ENDCHAR
STARTCHAR cyr-Er
ENCODING 242
SWIDTH 571 0
DWIDTH 20 0
BBX 31 35 -1 -8
BITMAP
00000000
00000000
00000000
00000000
00000000
001FFFC0
0007E3F0
0003C1F0
000781F0
000781F0
000781F0
000F03E0
000F03E0
000F03E0
001E07C0
001E0F80
001E1F80
003FFC00
003C0000
003C0000
00780000
00780000
00780000
00F00000
00F00000
01F80000
0FFC0000
00000000
00000000
00000000
00000000
00000000
00000000
00000000
00000000
ENDCHAR
STARTCHAR cyr-Es
ENCODING 243
SWIDTH 628 0
DWIDTH 22 0
BBX 33 35 -1 -8
BITMAP
0000000000
0000000000
0000000000
0000000000
0000000000
00003F9800
0000F8F800
0003E03800
000F803000
000F000000
001F000000
003C000000
007C000000
007C000000
00F8000000
00F8000000
00F8000000
01F0000000
01F0000000
01F0000000
01F0000000
01F0000000
00F800C000
01F8030000
00FE060000
003FFC0000
001FE00000
0000000000
0000000000
0000000000
0000000000
0000000000
0000000000
0000000000
0000000000
ENDCHAR
STARTCHAR cyr-Te
ENCODING 244
SWIDTH 628 0
DWIDTH 22 0
BBX 33 35 -1 -8
BITMAP
0000000000
0000000000
0000000000
0000000000
0000000000
001FFFFE00
001C1E0E00
00181E0600
00303C0C00
00003C0000
00003C0000
0000780000
0000780000
0000780000
0000F00000
0000F00000
0000F00000
0001E00000
0001E00000
0001E00000
0003C00000
0003C00000
0003C00000
0007800000
0007800000
000FC00000
007FE00000
0000000000
0000000000
0000000000
0000000000
0000000000
0000000000
0000000000
0000000000
ENDCHAR
STARTCHAR cyr-U
ENCODING 245
SWIDTH 657 0
DWIDTH 23 0
BBX 34 35 -1 -8
BITMAP
0000000000
0000000000
0000000000
0000000000
0000000000
003FF0FF80
000F803E00
0007C01C00
0007807000
0007807000
0003C0E000
0007838000
0007C38000
0003C70000
00078E0000
0003DC0000
0003DC0000
0003F00000
0003F00000
0001E00000
0003C00000
0003800000
0003800000
01CE000000
03EE000000
03FC000000
03F0000000
0000000000
0000000000
0000000000
0000000000
0000000000
0000000000
0000000000
0000000000
ENDCHAR
STARTCHAR cyr-Ef
ENCODING 230
SWIDTH 742 0
DWIDTH 26 0
BBX 37 35 -1 -8
BITMAP
0000000000
0000000000
0000000000
0000000000
0000000000
00007FF800
0001E79E00
0003C78F00
000F0F0F00
000F0F0F00
001E0F0780
003C1E0F00
007C1E0F80
007C1E0F80
00F83C1F00
00F83C1F00
00F83C1F00
01F0783E00
01F0783E00
01F0783E00
01E0F07800
01E0F07800
00F0F0F000
01E1E1E000
00F1E3C000
0079E78000
003FFC0000
0003C00000
001FF80000
0000000000
0000000000
0000000000
0000000000
0000000000
0000000000
ENDCHAR
STARTCHAR cyr-Kha
ENCODING 232
SWIDTH 685 0
DWIDTH 24 0
BBX 35 35 -1 -8
BITMAP
0000000000
0000000000
0000000000
0000000000
0000000000
001FF07F00
0007C01C00
0003E01800
0003E06000
0003E0C000
0001F0C000
0001F30000
0001F60000
0000FC0000
0000F80000
0000FC0000
00007C0000
0001FC0000
0003BE0000
00033E0000
000C3E0000
001C1F0000
00181F0000
00601F0000
00E00F8000
03C00FC000
1FF07FE000
0000000000
0000000000
0000000000
0000000000
0000000000
0000000000
0000000000
0000000000
ENDCHAR
STARTCHAR cyr-Tse
ENCODING 227
SWIDTH 685 0
DWIDTH 24 0
BBX 35 35 -1 -8
BITMAP
0000000000
0000000000
0000000000
0000000000
0000000000
001FF9FF80
0007E07E00
0003C03C00
0007807800
0007807800
0007807800
000F00F000
000F00F000
000F00F000
001E01E000
001E01E000
001E01E000
003C03C000
003C03C000
003C03C000
0078078000
0078078000
0078078000
00F00F0000
00F00F0000
01F81F8000
0FFFFFC000
000003C000
000001C000
0000018000
0000018000
0000000000
0000000000
0000000000
0000000000
ENDCHAR
STARTCHAR cyr-Che
ENCODING 254
SWIDTH 685 0
DWIDTH 24 0
BBX 35 35 -1 -8
BITMAP
0000000000
0000000000
0000000000
0000000000
0000000000
001FF9FF80
0007E07E00
0003C03C00
0007807800
0007807800
0007807800
000F00F000
000F00F000
000F00F000
001E01E000
001E01E000
000FFFE000
000003C000
000003C000
000003C000
0000078000
0000078000
0000078000
00000F0000
00000F0000
00001F8000
0000FFC000
0000000000
0000000000
0000000000
0000000000
0000000000
0000000000
0000000000
0000000000
ENDCHAR
STARTCHAR cyr-Sha
ENCODING 251
SWIDTH 971 0
DWIDTH 34 0
BBX 45 35 -1 -8
BITMAP
000000000000
000000000000
000000000000
000000000000
000000000000
001FFBFF7FE0
0007E0FC1F80
0003C0780F00
000780F01E00
000780F01E00
000780F01E00
000F01E03C00
000F01E03C00
000F01E03C00
001E03C07800
001E03C07800
001E03C07800
003C0780F000
003C0780F000
003C0780F000
00780F01E000
00780F01E000
00780F01E000
00F01E03C000
00F01E03C000
01F83F07E000
0FFFFFFFF000
000000000000
000000000000
000000000000
000000000000
000000000000
000000000000
000000000000
000000000000
ENDCHAR
STARTCHAR cyr-Shcha
ENCODING 253
SWIDTH 971 0
DWIDTH 34 0
BBX 45 35 -1 -8
BITMAP
000000000000
000000000000
000000000000
000000000000
000000000000
001FFBFF7FE0
0007E0FC1F80
0003C0780F00
000780F01E00
000780F01E00
000780F01E00
000F01E03C00
000F01E03C00
000F01E03C00
001E03C07800
001E03C07800
001E03C07800
003C0780F000
003C0780F000
003C0780F000
00780F01E000
00780F01E000
00780F01E000
00F01E03C000
00F01E03C000
01F83F07E000
0FFFFFFFF000
00000000F000
000000007000
000000006000
000000006000
000000000000
000000000000
000000000000
000000000000
ENDCHAR
STARTCHAR cyr-Ier
ENCODING 255
SWIDTH 714 0
DWIDTH 25 0
BBX 36 35 -1 -8
BITMAP
0000000000
0000000000
0000000000
0000000000
0000000000
001FFF0000
001EFC0000
001C780000
0030F00000
0030F00000
0000F00000
0001E00000
0001E00000
0001E00000
0003FFE000
0003E1F000
0003C07800
000780F800
0007807800
0007807C00
000F00F800
000F00F800
000F00F800
001E03E000
001E03E000
003F0FC000
01FFFE0000
0000000000
0000000000
0000000000
0000000000
0000000000
0000000000
0000000000
0000000000
ENDCHAR
STARTCHAR cyr-Iery
ENCODING 249
SWIDTH 857 0
DWIDTH 30 0
BBX 41 35 -1 -8
BITMAP
000000000000
000000000000
000000000000
000000000000
000000000000
001FF807FE00
0007E001F800
0003C000F000
00078001E000
00078001E000
00078001E000
000F0003C000
000F0003C000
000F0003C000
001FFF078000
001F0F878000
001E03C78000
003C07CF0000
003C03CF0000
003C03EF0000
007807DE0000
007807DE0000
007807DE0000
00F01F3C0000
00F01F3C0000
01F87E7E0000
0FFFF3FF0000
000000000000
000000000000
000000000000
000000000000
000000000000
000000000000
000000000000
000000000000
ENDCHAR
STARTCHAR cyr-Ierik
ENCODING 248
SWIDTH 628 0
DWIDTH 22 0
BBX 33 35 -1 -8
BITMAP
0000000000
0000000000
0000000000
0000000000
0000000000
001FF80000
0007E00000
0003C00000
0007800000
0007800000
0007800000
000F000000
000F000000
000F000000
001FFF0000
001F0F8000
001E03C000
003C07C000
003C03C000
003C03E000
007807C000
007807C000
007807C000
00F01F0000
00F01F0000
01F87E0000
0FFFF00000
0000000000
0000000000
0000000000
0000000000
0000000000
0000000000
0000000000
0000000000
ENDCHAR
STARTCHAR cyr-E-rev
ENCODING 252
SWIDTH 628 0
DWIDTH 22 0
BBX 33 35 -1 -8
BITMAP
0000000000
0000000000
0000000000
0000000000
0000000000
00067FE000
0007E0F800
0007007C00
000C007C00
000C007C00
0000007C00
000000F800
000000F800
000300F800
000701F000
0007FFF000
000701F000
000C03E000
000003E000
000003E000
000007C000
000007C000
00C007C000
01800F8000
01C01F0000
01F87E0000
033FF00000
0000000000
0000000000
0000000000
0000000000
0000000000
0000000000
0000000000
0000000000
ENDCHAR
STARTCHAR cyr-Yu
ENCODING 224
SWIDTH 885 0
DWIDTH 31 0
BBX 42 35 -1 -8
BITMAP
000000000000
000000000000
000000000000
000000000000
000000000000
001FF83FC000
0007E0F9F000
0003C1E07800
000787807800
000787807800
00078F003C00
000F1E007800
000F3E007C00
000F3E007C00
001E7C00F800
001FFC00F800
001E7C00F800
003CF801F000
003CF801F000
003CF801F000
0078F003C000
0078F003C000
007878078000
00F0F00F0000
00F0781E0000
01F83E7C0000
0FFC1FE00000
000000000000
000000000000
000000000000
000000000000
000000000000
000000000000
000000000000
000000000000
ENDCHAR
STARTCHAR cyr-Ya
ENCODING 241
SWIDTH 657 0
DWIDTH 23 0
BBX 34 35 -1 -8
BITMAP
0000000000
0000000000
0000000000
0000000000
0000000000
00007FFF00
0001F8FC00
0001F07800
0007C0F000
0007C0F000
0007C0F000
000F81E000
000F81E000
0007C1E000
000FC3C000
0003FFC000
0000FBC000
0001E78000
0003C78000
0007C78000
000F0F0000
001E0F0000
003E0F0000
00781E0000
00F01E0000
01F03F0000
1FC1FF8000
0000000000
0000000000
0000000000
0000000000
0000000000
0000000000
0000000000
0000000000
ENDCHAR
STARTCHAR cyr-a
ENCODING 193
SWIDTH 400 0
DWIDTH 14 0
BBX 25 35 -1 -8
BITMAP
00000000
00000000
00000000
00000000
00000000
00000000
00000000
00000000
00000000
00000000
00000000
00000000
000FC000
003CE000
00F1E000
00F1E000
0061E000
0007C000
001FC000
007BC000
01E78000
03C78000
03C78000
078F0000
07CF0000
03FFC000
03C70000
00000000
00000000
00000000
00000000
00000000
00000000
00000000
00000000
ENDCHAR
STARTCHAR cyr-be
ENCODING 194
SWIDTH 457 0
DWIDTH 16 0
BBX 27 35 -1 -8
BITMAP
00000000
00000000
00000180
00000380
0000FF00
00078000
000F0000
000F0000
003C0000
003C0000
003C0000
00780000
007FE000
007FF800
00F8F800
00F07800
00F07800
01E07800
01E07800
01E07800
03C0F000
03C0F000
03C1E000
0783C000
07878000
03DF0000
03F80000
00000000
00000000
00000000
00000000
00000000
00000000
00000000
00000000
ENDCHAR
STARTCHAR cyr-ve
ENCODING 215
SWIDTH 400 0
DWIDTH 14 0
BBX 25 35 -1 -8
BITMAP
00000000
00000000
00000000
00000000
00000000
00000000
00000000
00000000
00000000
00000000
00000000
00000000
007FE000
003FF000
0038E000
0038E000
0038E000
0071C000
007F8000
007FC000
00E3C000
00E1C000
00E1C000
01C38000
01C78000
03FF0000
0FFC0000
00000000
00000000
00000000
00000000
00000000
00000000
00000000
00000000
ENDCHAR
STARTCHAR cyr-ghe
ENCODING 199
SWIDTH 428 0
DWIDTH 15 0
BBX 26 35 -1 -8
BITMAP
00000000
00000000
00000000
00000000
00000000
00000000
00000000
00000000
00000000
00000000
00000000
00000000
007FFC00
003F1C00
003C1800
003C1800
003C0000
00780000
00780000
00780000
00F00000
00F00000
00F00000
01E00000
01E00000
03F00000
0FF00000
00000000
00000000
00000000
00000000
00000000
00000000
00000000
00000000
ENDCHAR
STARTCHAR cyr-de
ENCODING 196
SWIDTH 485 0
DWIDTH 17 0
BBX 28 35 -1 -8
BITMAP
00000000
00000000
00000000
00000000
00000000
00000000
00000000
00000000
00000000
00000000
00000000
00000000
007FFF00
003E7E00
00387800
00387800
00387800
0070F000
0070F000
0070F000
00E1E000
00E1E000
00E1E000
01C3C000
01C3C000
0387E000
0FFFE000
0E00E000
0C006000
1800C000
00000000
00000000
00000000
00000000
00000000
ENDCHAR
STARTCHAR cyr-ie
ENCODING 197
SWIDTH 428 0
DWIDTH 15 0
BBX 26 35 -1 -8
BITMAP
00000000
00000000
00000000
00000000
00000000
00000000
00000000
00000000
00000000
00000000
00000000
00000000
00078000
001FE000
0079E000
0070E000
00F0F000
01E1E000
01FFE000
01E00000
03C00000
03C00000
03C00000
03C1C000
03E38000
01FF0000
00F80000
00000000
00000000
00000000
00000000
00000000
00000000
00000000
00000000
ENDCHAR
STARTCHAR cyr-zhe
ENCODING 214
SWIDTH 800 0
DWIDTH 28 0
BBX 39 35 -1 -8
BITMAP
0000000000
0000000000
0000000000
0000000000
0000000000
0000000000
0000000000
0000000000
0000000000
0000000000
0000000000
0000000000
003E3FC7C0
007F1F8FE0
007E1E1F80
00031E3000
00019E6000
0001BD8000
0000FF0000
0001FF8000
0007FF8000
000F7BC000
001E79E000
0078F1E000
00F0F0F000
01E1F87800
0FF7FBFC00
0000000000
0000000000
0000000000
0000000000
0000000000
0000000000
0000000000
0000000000
ENDCHAR
STARTCHAR cyr-z
ENCODING 218
SWIDTH 400 0
DWIDTH 14 0
BBX 25 35 -1 -8
BITMAP
00000000
00000000
00000000
00000000
00000000
00000000
00000000
00000000
00000000
00000000
00000000
00000000
001FE000
003FF000
00F1F000
00E0F000
0000F000
0001E000
0003C000
001F8000
00078000
0003C000
0003C000
07078000
07878000
03FF0000
01FC0000
00000000
00000000
00000000
00000000
00000000
00000000
00000000
00000000
ENDCHAR
STARTCHAR cyr-i
ENCODING 201
SWIDTH 571 0
DWIDTH 20 0
BBX 31 35 -1 -8
BITMAP
00000000
00000000
00000000
00000000
00000000
00000000
00000000
00000000
00000000
00000000
00000000
00000000
007F8FE0
003F0FC0
003C3F00
003C3F00
003C7F00
0078DE00
0079DE00
00799E00
00F73C00
00F63C00
00FE3C00
01F87800
01F87800
03F0FC00
0FE3FC00
00000000
00000000
00000000
00000000
00000000
00000000
00000000
00000000
ENDCHAR
STARTCHAR cyr-i-short
ENCODING 202
SWIDTH 571 0
DWIDTH 20 0
BBX 31 35 -1 -8
BITMAP
00000000
00000000
00000000
00000000
00000000
00000000
00000000
00000000
0000E700
0000E700
00007C00
00000000
007F8FE0
003F0FC0
003C3F00
003C3F00
003C7F00
0078DE00
0079DE00
00799E00
00F73C00
00F63C00
00FE3C00
01F87800
01F87800
03F0FC00
0FE3FC00
00000000
00000000
00000000
00000000
00000000
00000000
00000000
00000000
ENDCHAR
STARTCHAR cyr-ka
ENCODING 203
SWIDTH 514 0
DWIDTH 18 0
BBX 29 35 -1 -8
BITMAP
00000000
00000000
00000000
00000000
00000000
00000000
00000000
00000000
00000000
00000000
00000000
00000000
007F8F80
003F1FC0
003C6F00
003CC000
003D8000
007E0000
007E0000
007F0000
00FF0000
00F78000
00F3C000
01E3C000
01E1E000
03F0F000
0FF7F000
00000000
00000000
00000000
00000000
00000000
00000000
00000000
00000000
ENDCHAR
STARTCHAR cyr-el
ENCODING 204
SWIDTH 571 0
DWIDTH 20 0
BBX 31 35 -1 -8
BITMAP
00000000
00000000
00000000
00000000
00000000
00000000
00000000
00000000
00000000
00000000
00000000
00000000
000FFFE0
0007CFC0
00070F00
00070F00
00070F00
000E1E00
000E1E00
000E1E00
001C3C00
001C3C00
001C3C00
00387800
07B87800
07F0FC00
07C3FC00
00000000
00000000
00000000
00000000
00000000
00000000
00000000
00000000
ENDCHAR
STARTCHAR cyr-em
ENCODING 205
SWIDTH 685 0
DWIDTH 24 0
BBX 35 35 -1 -8
BITMAP
0000000000
0000000000
0000000000
0000000000
0000000000
0000000000
0000000000
0000000000
0000000000
0000000000
0000000000
0000000000
007C00FE00
003E00FC00
003C03F000
003E03F000
003E07F000
007E0DE000
006E1DE000
006F19E000
00CE73C000
00CF63C000
00C7E3C000
018F878000
0187878000
03C70FC000
0FC63FC000
0000000000
0000000000
0000000000
0000000000
0000000000
0000000000
0000000000
0000000000
ENDCHAR
STARTCHAR cyr-en
ENCODING 206
SWIDTH 571 0
DWIDTH 20 0
BBX 31 35 -1 -8
BITMAP
00000000
00000000
00000000
00000000
00000000
00000000
00000000
00000000
00000000
00000000
00000000
00000000
007F9FE0
003F0FC0
003C0F00
003C0F00
003C0F00
00781E00
00781E00
007FFE00
00F03C00
00F03C00
00F03C00
01E07800
01E07800
03F0FC00
0FF3FC00
00000000
00000000
00000000
00000000
00000000
00000000
00000000
00000000
ENDCHAR
STARTCHAR cyr-o
ENCODING 207
SWIDTH 514 0
DWIDTH 18 0
BBX 29 35 -1 -8
BITMAP
00000000
00000000
00000000
00000000
00000000
00000000
00000000
00000000
00000000
00000000
00000000
00000000
0003F000
000F3C00
003C3C00
00781E00
00700E00
01E01E00
01E01E00
01E01E00
03C03C00
03C03C00
01E07800
03C0F000
01E1E000
00F3C000
007E0000
00000000
00000000
00000000
00000000
00000000
00000000
00000000
00000000
ENDCHAR
STARTCHAR cyr-pe
ENCODING 208
SWIDTH 571 0
DWIDTH 20 0
BBX 31 35 -1 -8
BITMAP
00000000
00000000
00000000
00000000
00000000
00000000
00000000
00000000
00000000
00000000
00000000
00000000
007FFFE0
003F0FC0
003C0F00
003C0F00
003C0F00
00781E00
00781E00
00781E00
00F03C00
00F03C00
00F03C00
01E07800
01E07800
03F0FC00
0FF3FC00
00000000
00000000
00000000
00000000
00000000
00000000
00000000
00000000
ENDCHAR
STARTCHAR cyr-er
ENCODING 210
SWIDTH 514 0
DWIDTH 18 0
BBX 29 35 -1 -8
BITMAP
00000000
00000000
00000000
00000000
00000000
00000000
00000000
00000000
00000000
00000000
00000000
00000000
007FF800
003FFE00
003C3E00
003C1E00
003C1F00
00781E00
00781E00
00781E00
00F03C00
00F03C00
00F07800
01E0F000
01E1E000
01E7C000
03FE0000
03C00000
03C00000
07800000
07800000
07800000
0F000000
1F800000
3FC00000
ENDCHAR
STARTCHAR cyr-es
ENCODING 211
SWIDTH 428 0
DWIDTH 15 0
BBX 26 35 -1 -8
BITMAP
00000000
00000000
00000000
00000000
00000000
00000000
00000000
00000000
00000000
00000000
00000000
00000000
0007C000
001EF000
0078F000
0070F000
00F06000
01E00000
01E00000
01E00000
03C00000
03C00000
03E00000
03E0C000
03F18000
01FF0000
00FC0000
00000000
00000000
00000000
00000000
00000000
00000000
00000000
00000000
ENDCHAR
STARTCHAR cyr-te
ENCODING 212
SWIDTH 514 0
DWIDTH 18 0
BBX 29 35 -1 -8
BITMAP
00000000
00000000
00000000
00000000
00000000
00000000
00000000
00000000
00000000
00000000
00000000
00000000
007FFF80
0073F380
00C3C300
00C3C300
0003C000
00078000
00078000
00078000
000F0000
000F0000
000F0000
001E0000
001E0000
003F0000
00FF0000
00000000
00000000
00000000
00000000
00000000
00000000
00000000
00000000
ENDCHAR
STARTCHAR cyr-u
ENCODING 213
SWIDTH 514 0
DWIDTH 18 0
BBX 29 35 -1 -8
BITMAP
00000000
00000000
00000000
00000000
00000000
00000000
00000000
00000000
00000000
00000000
00000000
00000000
007F9FC0
001E0700
003C0C00
001E0C00
001E1800
001E3000
001E3000
000F6000
001EC000
000FC000
000F8000
000F0000
000E0000
00060000
000C0000
00180000
00180000
00600000
00600000
0EC00000
3F800000
3F000000
1E000000
ENDCHAR
STARTCHAR cyr-ef
ENCODING 198
SWIDTH 571 0
DWIDTH 20 0
BBX 31 35 -1 -8
BITMAP
00000000
00000000
00000000
00000000
00000000
00000000
00000000
00000000
00000000
00000000
00000000
00000000
0003FF00
000FFF80
0039EF80
0079E780
0071E7C0
01E3C780
01E3C780
01E3C780
03C78F00
03C78F00
03C78E00
03CF3C00
03EF3800
01FFF000
00FF8000
001E0000
001E0000
003C0000
003C0000
003C0000
00780000
00FC0000
01FE0000
ENDCHAR
STARTCHAR cyr-kha
ENCODING 200
SWIDTH 514 0
DWIDTH 18 0
BBX 29 35 -1 -8
BITMAP
00000000
00000000
00000000
00000000
00000000
00000000
00000000
00000000
00000000
00000000
00000000
00000000
007F3F00
001E1C00
001E7000
001E6000
000FE000
000F8000
000F8000
00078000
001F8000
001F8000
003BC000
0063C000
00E3C000
01C1E000
0FEFF000
00000000
00000000
00000000
00000000
00000000
00000000
00000000
00000000
ENDCHAR
STARTCHAR cyr-tse
ENCODING 195
SWIDTH 571 0
DWIDTH 20 0
BBX 31 35 -1 -8
BITMAP
00000000
00000000
00000000
00000000
00000000
00000000
00000000
00000000
00000000
00000000
00000000
00000000
007F9FE0
003F0FC0
003C0F00
003C0F00
003C0F00
00781E00
00781E00
00781E00
00F03C00
00F03C00
00F03C00
01E07800
01E07800
03F0F800
0FFFFC00
00001C00
00000C00
00001800
00000000
00000000
00000000
00000000
00000000
ENDCHAR
STARTCHAR cyr-che
ENCODING 222
SWIDTH 571 0
DWIDTH 20 0
BBX 31 35 -1 -8
BITMAP
00000000
00000000
00000000
00000000
00000000
00000000
00000000
00000000
00000000
00000000
00000000
00000000
007F9FE0
003F0FC0
003C0F00
003C0F00
003C0F00
00781E00
00781E00
00781E00
007FFC00
00003C00
00003C00
00007800
00007800
0000FC00
0003FC00
00000000
00000000
00000000
00000000
00000000
00000000
00000000
00000000
ENDCHAR
STARTCHAR cyr-sha
ENCODING 219
SWIDTH 800 0
DWIDTH 28 0
BBX 39 35 -1 -8
BITMAP
0000000000
0000000000
0000000000
0000000000
0000000000
0000000000
0000000000
0000000000
0000000000
0000000000
0000000000
0000000000
007FBFDFE0
003F1F8FC0
003C1E0F00
003C1E0F00
003C1E0F00
00783C1E00
00783C1E00
00783C1E00
00F0783C00
00F0783C00
00F0783C00
01E0F07800
01E0F07800
03F1F8FC00
0FFFFFFC00
0000000000
0000000000
0000000000
0000000000
0000000000
0000000000
0000000000
0000000000
ENDCHAR
STARTCHAR cyr-shcha
ENCODING 221
SWIDTH 800 0
DWIDTH 28 0
BBX 39 35 -1 -8
BITMAP
0000000000
0000000000
0000000000
0000000000
0000000000
0000000000
0000000000
0000000000
0000000000
0000000000
0000000000
0000000000
007FBFDFE0
003F1F8FC0
003C1E0F00
003C1E0F00
003C1E0F00
00783C1E00
00783C1E00
00783C1E00
00F0783C00
00F0783C00
00F0783C00
01E0F07800
01E0F07800
03F1F8F800
0FFFFFFC00
0000001C00
0000000C00
0000001800
0000000000
0000000000
0000000000
0000000000
0000000000
ENDCHAR
STARTCHAR cyr-ier
ENCODING 223
SWIDTH 542 0
DWIDTH 19 0
BBX 30 35 -1 -8
BITMAP
00000000
00000000
00000000
00000000
00000000
00000000
00000000
00000000
00000000
00000000
00000000
00000000
007FF000
0077E000
00E78000
00C78000
00C78000
000F0000
000FF800
000FFE00
001E3E00
001E1E00
001E1E00
003C3C00
003C7C00
007FF800
01FFC000
00000000
00000000
00000000
00000000
00000000
00000000
00000000
00000000
ENDCHAR
STARTCHAR cyr-iery
ENCODING 217
SWIDTH 657 0
DWIDTH 23 0
BBX 34 35 -1 -8
BITMAP
0000000000
0000000000
0000000000
0000000000
0000000000
0000000000
0000000000
0000000000
0000000000
0000000000
0000000000
0000000000
007F83FC00
003F01F800
003C01E000
003C01E000
003C01E000
007803C000
007FC3C000
007FF3C000
00F1F78000
00F0F78000
00F0F78000
01E1EF0000
01E3EF0000
03FFDF8000
0FFE7F8000
0000000000
0000000000
0000000000
0000000000
0000000000
0000000000
0000000000
0000000000
ENDCHAR
STARTCHAR cyr-ierik
ENCODING 216
SWIDTH 457 0
DWIDTH 16 0
BBX 27 35 -1 -8
BITMAP
00000000
00000000
00000000
00000000
00000000
00000000
00000000
00000000
00000000
00000000
00000000
00000000
007F8000
003F0000
003C0000
003C0000
003C0000
00780000
007FC000
007FF000
00F1F000
00F0F000
00F0F000
01E1E000
01E3E000
03FFC000
0FFE0000
00000000
00000000
00000000
00000000
00000000
00000000
00000000
00000000
ENDCHAR
STARTCHAR cyr-e-rev
ENCODING 220
SWIDTH 428 0
DWIDTH 15 0
BBX 26 35 -1 -8
BITMAP
00000000
00000000
00000000
00000000
00000000
00000000
00000000
00000000
00000000
00000000
00000000
00000000
001FE000
003FF000
00F0F000
00E07800
00C07800
0000F000
0000F000
003FF000
0001E000
0001E000
0301E000
0703C000
07878000
03FF0000
01FC0000
00000000
00000000
00000000
00000000
00000000
00000000
00000000
00000000
ENDCHAR
STARTCHAR cyr-yu
ENCODING 192
SWIDTH 714 0
DWIDTH 25 0
BBX 36 35 -1 -8
BITMAP
0000000000
0000000000
0000000000
0000000000
0000000000
0000000000
0000000000
0000000000
0000000000
0000000000
0000000000
0000000000
007F87E000
003F1E7800
003C787800
003CF03C00
003CE01C00
007BC03C00
007FC03C00
007FC03C00
00F7807800
00F7807800
00F3C0F000
01E781E000
01E3C3C000
03F1E78000
0FF0FC0000
0000000000
0000000000
0000000000
0000000000
0000000000
0000000000
0000000000
0000000000
ENDCHAR
STARTCHAR cyr-ya
ENCODING 209
SWIDTH 571 0
DWIDTH 20 0
BBX 31 35 -1 -8
BITMAP
00000000
00000000
00000000
00000000
00000000
00000000
00000000
00000000
00000000
00000000
00000000
00000000
0003FFE0
000787C0
001E0F00
001E0F00
001E0F00
003C1E00
001E1E00
000FFE00
0007BC00
000F3C00
001E3C00
00787800
00F07800
01E0FC00
0FC3FC00
00000000
00000000
00000000
00000000
00000000
00000000
00000000
00000000
ENDCHAR
ENDFONT
